<svg xmlns="http://www.w3.org/2000/svg" xml:space="preserve" xmlns:xlink="http://www.w3.org/1999/xlink" style="max-width: 100%;height: auto;" width="1076.25" height="1255.625" viewBox="0 0 1076.25 1255.625">
<defs><mask id="qrmask"><g fill="#ffffff"><g>
<g transform="translate(275.625,107.625) scale(3.605)"><path d="M6,6H0V3c0-1.7,1.3-3,3-3l3,0V6z"></path></g>
<g transform="translate(296.625,107.625) scale(3.605)"><path d="M6,6H0V0l3,0c1.7,0,3,1.3,3,3V6z"></path></g>
<g transform="translate(359.625,107.625) scale(3.605)"><circle cx="3" cy="3" r="3"></circle></g>
<g transform="translate(401.625,107.625) scale(3.605)"><path d="M6,6H0V3c0-1.7,1.3-3,3-3l3,0V6z"></path></g>
<g transform="translate(422.625,107.625) scale(3.605)"><path d="M6,6H0V0l3,0c1.7,0,3,1.3,3,3V6z"></path></g>
<g transform="translate(464.625,107.625) scale(3.605)"><path d="M6,6H0V3c0-1.7,1.3-3,3-3h0c1.7,0,3,1.3,3,3V6z"></path></g>
<g transform="translate(548.625,107.625) scale(3.605)"><circle cx="3" cy="3" r="3"></circle></g>
<g transform="translate(590.625,107.625) scale(3.605)"><path d="M6,6H0V3c0-1.7,1.3-3,3-3l3,0V6z"></path></g>
<g transform="translate(611.625,107.625) scale(3.605)"><rect width="6" height="6"></rect></g>
<g transform="translate(632.625,107.625) scale(3.605)"><path d="M6,6H0V0l3,0c1.7,0,3,1.3,3,3V6z"></path></g>
<g transform="translate(695.625,107.625) scale(3.605)"><path d="M6,6H0V3c0-1.7,1.3-3,3-3l3,0V6z"></path></g>
<g transform="translate(716.625,107.625) scale(3.605)"><rect width="6" height="6"></rect></g>
<g transform="translate(737.625,107.625) scale(3.605)"><rect width="6" height="6"></rect></g>
<g transform="translate(758.625,107.625) scale(3.605)"><path d="M3,6H0V0l3,0c1.7,0,3,1.3,3,3v0C6,4.7,4.7,6,3,6z"></path></g>
<g transform="translate(275.625,128.625) scale(3.605)"><rect width="6" height="6"></rect></g>
<g transform="translate(296.625,128.625) scale(3.605)"><rect width="6" height="6"></rect></g>
<g transform="translate(317.625,128.625) scale(3.605)"><path d="M3,6H0V0l3,0c1.7,0,3,1.3,3,3v0C6,4.7,4.7,6,3,6z"></path></g>
<g transform="translate(380.625,128.625) scale(3.605)"><path d="M6,6H3C1.3,6,0,4.7,0,3v0c0-1.7,1.3-3,3-3h3C6,0,6,6,6,6z"></path></g>
<g transform="translate(401.625,128.625) scale(3.605)"><rect width="6" height="6"></rect></g>
<g transform="translate(422.625,128.625) scale(3.605)"><rect width="6" height="6"></rect></g>
<g transform="translate(464.625,128.625) scale(3.605)"><rect width="6" height="6"></rect></g>
<g transform="translate(506.625,128.625) scale(3.605)"><path d="M6,6H3C1.3,6,0,4.7,0,3v0c0-1.7,1.3-3,3-3h3C6,0,6,6,6,6z"></path></g>
<g transform="translate(527.625,128.625) scale(3.605)"><path d="M6,6H0V0l3,0c1.7,0,3,1.3,3,3V6z"></path></g>
<g transform="translate(569.625,128.625) scale(3.605)"><path d="M6,6H0V3c0-1.7,1.3-3,3-3l3,0V6z"></path></g>
<g transform="translate(590.625,128.625) scale(3.605)"><rect width="6" height="6"></rect></g>
<g transform="translate(632.625,128.625) scale(3.605)"><rect width="6" height="6"></rect></g>
<g transform="translate(653.625,128.625) scale(3.605)"><rect width="6" height="6"></rect></g>
<g transform="translate(674.625,128.625) scale(3.605)"><rect width="6" height="6"></rect></g>
<g transform="translate(695.625,128.625) scale(3.605)"><rect width="6" height="6"></rect></g>
<g transform="translate(716.625,128.625) scale(3.605)"><path d="M3,6H0V0l6,0v3C6,4.7,4.7,6,3,6z"></path></g>
<g transform="translate(275.625,149.625) scale(3.605)"><path d="M3,6L3,6C1.3,6,0,4.7,0,3V0h6v3C6,4.7,4.7,6,3,6z"></path></g>
<g transform="translate(338.625,149.625) scale(3.605)"><path d="M6,6H0V3c0-1.7,1.3-3,3-3h0c1.7,0,3,1.3,3,3V6z"></path></g>
<g transform="translate(422.625,149.625) scale(3.605)"><rect width="6" height="6"></rect></g>
<g transform="translate(443.625,149.625) scale(3.605)"><rect width="6" height="6"></rect></g>
<g transform="translate(464.625,149.625) scale(3.605)"><path d="M3,6H0V0l6,0v3C6,4.7,4.7,6,3,6z"></path></g>
<g transform="translate(527.625,149.625) scale(3.605)"><rect width="6" height="6"></rect></g>
<g transform="translate(569.625,149.625) scale(3.605)"><rect width="6" height="6"></rect></g>
<g transform="translate(590.625,149.625) scale(3.605)"><rect width="6" height="6"></rect></g>
<g transform="translate(611.625,149.625) scale(3.605)"><rect width="6" height="6"></rect></g>
<g transform="translate(632.625,149.625) scale(3.605)"><path d="M3,6H0V0l6,0v3C6,4.7,4.7,6,3,6z"></path></g>
<g transform="translate(695.625,149.625) scale(3.605)"><rect width="6" height="6"></rect></g>
<g transform="translate(758.625,149.625) scale(3.605)"><path d="M6,6H0V3c0-1.7,1.3-3,3-3l3,0V6z"></path></g>
<g transform="translate(779.625,149.625) scale(3.605)"><path d="M3,6H0V0l3,0c1.7,0,3,1.3,3,3v0C6,4.7,4.7,6,3,6z"></path></g>
<g transform="translate(296.625,170.625) scale(3.605)"><path d="M6,6H0V3c0-1.7,1.3-3,3-3h0c1.7,0,3,1.3,3,3V6z"></path></g>
<g transform="translate(338.625,170.625) scale(3.605)"><path d="M6,6H3C1.3,6,0,4.7,0,3V0l6,0V6z"></path></g>
<g transform="translate(359.625,170.625) scale(3.605)"><path d="M6,6H0V0l3,0c1.7,0,3,1.3,3,3V6z"></path></g>
<g transform="translate(401.625,170.625) scale(3.605)"><path d="M6,6H3C1.3,6,0,4.7,0,3v0c0-1.7,1.3-3,3-3h3C6,0,6,6,6,6z"></path></g>
<g transform="translate(422.625,170.625) scale(3.605)"><path d="M3,6H0V0l6,0v3C6,4.7,4.7,6,3,6z"></path></g>
<g transform="translate(485.625,170.625) scale(3.605)"><path d="M6,6H3C1.3,6,0,4.7,0,3v0c0-1.7,1.3-3,3-3h3C6,0,6,6,6,6z"></path></g>
<g transform="translate(506.625,170.625) scale(3.605)"><rect width="6" height="6"></rect></g>
<g transform="translate(527.625,170.625) scale(3.605)"><rect width="6" height="6"></rect></g>
<g transform="translate(548.625,170.625) scale(3.605)"><rect width="6" height="6"></rect></g>
<g transform="translate(569.625,170.625) scale(3.605)"><rect width="6" height="6"></rect></g>
<g transform="translate(590.625,170.625) scale(3.605)"><rect width="6" height="6"></rect></g>
<g transform="translate(611.625,170.625) scale(3.605)"><rect width="6" height="6"></rect></g>
<g transform="translate(653.625,170.625) scale(3.605)"><circle cx="3" cy="3" r="3"></circle></g>
<g transform="translate(695.625,170.625) scale(3.605)"><rect width="6" height="6"></rect></g>
<g transform="translate(737.625,170.625) scale(3.605)"><path d="M6,6H0V3c0-1.7,1.3-3,3-3l3,0V6z"></path></g>
<g transform="translate(758.625,170.625) scale(3.605)"><rect width="6" height="6"></rect></g>
<g transform="translate(296.625,191.625) scale(3.605)"><path d="M3,6L3,6C1.3,6,0,4.7,0,3V0h6v3C6,4.7,4.7,6,3,6z"></path></g>
<g transform="translate(359.625,191.625) scale(3.605)"><rect width="6" height="6"></rect></g>
<g transform="translate(443.625,191.625) scale(3.605)"><path d="M6,6H0V3c0-1.7,1.3-3,3-3l3,0V6z"></path></g>
<g transform="translate(464.625,191.625) scale(3.605)"><path d="M3,6H0V0l3,0c1.7,0,3,1.3,3,3v0C6,4.7,4.7,6,3,6z"></path></g>
<g transform="translate(506.625,191.625) scale(3.605)"><rect width="6" height="6"></rect></g>
<g transform="translate(527.625,191.625) scale(3.605)"><rect width="6" height="6"></rect></g>
<g transform="translate(569.625,191.625) scale(3.605)"><rect width="6" height="6"></rect></g>
<g transform="translate(590.625,191.625) scale(3.605)"><rect width="6" height="6"></rect></g>
<g transform="translate(611.625,191.625) scale(3.605)"><rect width="6" height="6"></rect></g>
<g transform="translate(632.625,191.625) scale(3.605)"><path d="M6,6H0V0l3,0c1.7,0,3,1.3,3,3V6z"></path></g>
<g transform="translate(695.625,191.625) scale(3.605)"><rect width="6" height="6"></rect></g>
<g transform="translate(737.625,191.625) scale(3.605)"><rect width="6" height="6"></rect></g>
<g transform="translate(758.625,191.625) scale(3.605)"><rect width="6" height="6"></rect></g>
<g transform="translate(779.625,191.625) scale(3.605)"><path d="M6,6H0V0l3,0c1.7,0,3,1.3,3,3V6z"></path></g>
<g transform="translate(275.625,212.625) scale(3.605)"><path d="M6,6H0V3c0-1.7,1.3-3,3-3h0c1.7,0,3,1.3,3,3V6z"></path></g>
<g transform="translate(359.625,212.625) scale(3.605)"><rect width="6" height="6"></rect></g>
<g transform="translate(380.625,212.625) scale(3.605)"><path d="M3,6H0V0l3,0c1.7,0,3,1.3,3,3v0C6,4.7,4.7,6,3,6z"></path></g>
<g transform="translate(443.625,212.625) scale(3.605)"><rect width="6" height="6"></rect></g>
<g transform="translate(485.625,212.625) scale(3.605)"><path d="M6,6H0V3c0-1.7,1.3-3,3-3l3,0V6z"></path></g>
<g transform="translate(506.625,212.625) scale(3.605)"><rect width="6" height="6"></rect></g>
<g transform="translate(527.625,212.625) scale(3.605)"><rect width="6" height="6"></rect></g>
<g transform="translate(548.625,212.625) scale(3.605)"><rect width="6" height="6"></rect></g>
<g transform="translate(569.625,212.625) scale(3.605)"><rect width="6" height="6"></rect></g>
<g transform="translate(590.625,212.625) scale(3.605)"><rect width="6" height="6"></rect></g>
<g transform="translate(611.625,212.625) scale(3.605)"><rect width="6" height="6"></rect></g>
<g transform="translate(632.625,212.625) scale(3.605)"><rect width="6" height="6"></rect></g>
<g transform="translate(653.625,212.625) scale(3.605)"><rect width="6" height="6"></rect></g>
<g transform="translate(674.625,212.625) scale(3.605)"><rect width="6" height="6"></rect></g>
<g transform="translate(695.625,212.625) scale(3.605)"><rect width="6" height="6"></rect></g>
<g transform="translate(737.625,212.625) scale(3.605)"><rect width="6" height="6"></rect></g>
<g transform="translate(779.625,212.625) scale(3.605)"><rect width="6" height="6"></rect></g>
<g transform="translate(275.625,233.625) scale(3.605)"><rect width="6" height="6"></rect></g>
<g transform="translate(317.625,233.625) scale(3.605)"><path d="M6,6H0V3c0-1.7,1.3-3,3-3h0c1.7,0,3,1.3,3,3V6z"></path></g>
<g transform="translate(359.625,233.625) scale(3.605)"><rect width="6" height="6"></rect></g>
<g transform="translate(401.625,233.625) scale(3.605)"><path d="M6,6H0V3c0-1.7,1.3-3,3-3h0c1.7,0,3,1.3,3,3V6z"></path></g>
<g transform="translate(443.625,233.625) scale(3.605)"><rect width="6" height="6"></rect></g>
<g transform="translate(485.625,233.625) scale(3.605)"><path d="M3,6L3,6C1.3,6,0,4.7,0,3V0h6v3C6,4.7,4.7,6,3,6z"></path></g>
<g transform="translate(527.625,233.625) scale(3.605)"><path d="M3,6L3,6C1.3,6,0,4.7,0,3V0h6v3C6,4.7,4.7,6,3,6z"></path></g>
<g transform="translate(569.625,233.625) scale(3.605)"><path d="M3,6L3,6C1.3,6,0,4.7,0,3V0h6v3C6,4.7,4.7,6,3,6z"></path></g>
<g transform="translate(611.625,233.625) scale(3.605)"><rect width="6" height="6"></rect></g>
<g transform="translate(653.625,233.625) scale(3.605)"><rect width="6" height="6"></rect></g>
<g transform="translate(695.625,233.625) scale(3.605)"><path d="M3,6L3,6C1.3,6,0,4.7,0,3V0h6v3C6,4.7,4.7,6,3,6z"></path></g>
<g transform="translate(737.625,233.625) scale(3.605)"><path d="M3,6L3,6C1.3,6,0,4.7,0,3V0h6v3C6,4.7,4.7,6,3,6z"></path></g>
<g transform="translate(779.625,233.625) scale(3.605)"><rect width="6" height="6"></rect></g>
<g transform="translate(275.625,254.625) scale(3.605)"><rect width="6" height="6"></rect></g>
<g transform="translate(296.625,254.625) scale(3.605)"><rect width="6" height="6"></rect></g>
<g transform="translate(317.625,254.625) scale(3.605)"><rect width="6" height="6"></rect></g>
<g transform="translate(359.625,254.625) scale(3.605)"><rect width="6" height="6"></rect></g>
<g transform="translate(401.625,254.625) scale(3.605)"><rect width="6" height="6"></rect></g>
<g transform="translate(422.625,254.625) scale(3.605)"><rect width="6" height="6"></rect></g>
<g transform="translate(443.625,254.625) scale(3.605)"><rect width="6" height="6"></rect></g>
<g transform="translate(464.625,254.625) scale(3.605)"><path d="M3,6H0V0l3,0c1.7,0,3,1.3,3,3v0C6,4.7,4.7,6,3,6z"></path></g>
<g transform="translate(506.625,254.625) scale(3.605)"><circle cx="3" cy="3" r="3"></circle></g>
<g transform="translate(611.625,254.625) scale(3.605)"><rect width="6" height="6"></rect></g>
<g transform="translate(653.625,254.625) scale(3.605)"><path d="M6,6H3C1.3,6,0,4.7,0,3V0l6,0V6z"></path></g>
<g transform="translate(674.625,254.625) scale(3.605)"><path d="M6,6H0V0l3,0c1.7,0,3,1.3,3,3V6z"></path></g>
<g transform="translate(779.625,254.625) scale(3.605)"><path d="M3,6L3,6C1.3,6,0,4.7,0,3V0h6v3C6,4.7,4.7,6,3,6z"></path></g>
<g transform="translate(149.625,275.625) scale(3.605)"><path d="M6,6H3C1.3,6,0,4.7,0,3v0c0-1.7,1.3-3,3-3h3C6,0,6,6,6,6z"></path></g>
<g transform="translate(170.625,275.625) scale(3.605)"><rect width="6" height="6"></rect></g>
<g transform="translate(191.625,275.625) scale(3.605)"><path d="M3,6H0V0l3,0c1.7,0,3,1.3,3,3v0C6,4.7,4.7,6,3,6z"></path></g>
<g transform="translate(233.625,275.625) scale(3.605)"><circle cx="3" cy="3" r="3"></circle></g>
<g transform="translate(275.625,275.625) scale(3.605)"><rect width="6" height="6"></rect></g>
<g transform="translate(317.625,275.625) scale(3.605)"><path d="M3,6L3,6C1.3,6,0,4.7,0,3V0h6v3C6,4.7,4.7,6,3,6z"></path></g>
<g transform="translate(359.625,275.625) scale(3.605)"><rect width="6" height="6"></rect></g>
<g transform="translate(380.625,275.625) scale(3.605)"><rect width="6" height="6"></rect></g>
<g transform="translate(401.625,275.625) scale(3.605)"><rect width="6" height="6"></rect></g>
<g transform="translate(443.625,275.625) scale(3.605)"><path d="M3,6L3,6C1.3,6,0,4.7,0,3V0h6v3C6,4.7,4.7,6,3,6z"></path></g>
<g transform="translate(548.625,275.625) scale(3.605)"><path d="M6,6H0V3c0-1.7,1.3-3,3-3h0c1.7,0,3,1.3,3,3V6z"></path></g>
<g transform="translate(611.625,275.625) scale(3.605)"><path d="M3,6L3,6C1.3,6,0,4.7,0,3V0h6v3C6,4.7,4.7,6,3,6z"></path></g>
<g transform="translate(674.625,275.625) scale(3.605)"><path d="M6,6H3C1.3,6,0,4.7,0,3V0l6,0V6z"></path></g>
<g transform="translate(695.625,275.625) scale(3.605)"><rect width="6" height="6"></rect></g>
<g transform="translate(716.625,275.625) scale(3.605)"><path d="M3,6H0V0l3,0c1.7,0,3,1.3,3,3v0C6,4.7,4.7,6,3,6z"></path></g>
<g transform="translate(800.625,275.625) scale(3.605)"><path d="M6,6H3C1.3,6,0,4.7,0,3v0c0-1.7,1.3-3,3-3h3C6,0,6,6,6,6z"></path></g>
<g transform="translate(821.625,275.625) scale(3.605)"><rect width="6" height="6"></rect></g>
<g transform="translate(842.625,275.625) scale(3.605)"><path d="M6,6H0V0l3,0c1.7,0,3,1.3,3,3V6z"></path></g>
<g transform="translate(905.625,275.625) scale(3.605)"><path d="M6,6H0V3c0-1.7,1.3-3,3-3l3,0V6z"></path></g>
<g transform="translate(926.625,275.625) scale(3.605)"><rect width="6" height="6"></rect></g>
<g transform="translate(947.625,275.625) scale(3.605)"><path d="M6,6H0V0l3,0c1.7,0,3,1.3,3,3V6z"></path></g>
<g transform="translate(128.625,296.625) scale(3.605)"><path d="M6,6H0V3c0-1.7,1.3-3,3-3h0c1.7,0,3,1.3,3,3V6z"></path></g>
<g transform="translate(275.625,296.625) scale(3.605)"><rect width="6" height="6"></rect></g>
<g transform="translate(296.625,296.625) scale(3.605)"><path d="M6,6H0V0l3,0c1.7,0,3,1.3,3,3V6z"></path></g>
<g transform="translate(359.625,296.625) scale(3.605)"><path d="M3,6L3,6C1.3,6,0,4.7,0,3V0h6v3C6,4.7,4.7,6,3,6z"></path></g>
<g transform="translate(401.625,296.625) scale(3.605)"><rect width="6" height="6"></rect></g>
<g transform="translate(422.625,296.625) scale(3.605)"><path d="M3,6H0V0l3,0c1.7,0,3,1.3,3,3v0C6,4.7,4.7,6,3,6z"></path></g>
<g transform="translate(485.625,296.625) scale(3.605)"><path d="M6,6H0V3c0-1.7,1.3-3,3-3h0c1.7,0,3,1.3,3,3V6z"></path></g>
<g transform="translate(548.625,296.625) scale(3.605)"><rect width="6" height="6"></rect></g>
<g transform="translate(590.625,296.625) scale(3.605)"><circle cx="3" cy="3" r="3"></circle></g>
<g transform="translate(695.625,296.625) scale(3.605)"><rect width="6" height="6"></rect></g>
<g transform="translate(758.625,296.625) scale(3.605)"><path d="M6,6H3C1.3,6,0,4.7,0,3v0c0-1.7,1.3-3,3-3h3C6,0,6,6,6,6z"></path></g>
<g transform="translate(779.625,296.625) scale(3.605)"><path d="M6,6H0V0l3,0c1.7,0,3,1.3,3,3V6z"></path></g>
<g transform="translate(821.625,296.625) scale(3.605)"><rect width="6" height="6"></rect></g>
<g transform="translate(842.625,296.625) scale(3.605)"><rect width="6" height="6"></rect></g>
<g transform="translate(863.625,296.625) scale(3.605)"><path d="M6,6H0V0l3,0c1.7,0,3,1.3,3,3V6z"></path></g>
<g transform="translate(905.625,296.625) scale(3.605)"><path d="M6,6H3C1.3,6,0,4.7,0,3V0l6,0V6z"></path></g>
<g transform="translate(926.625,296.625) scale(3.605)"><rect width="6" height="6"></rect></g>
<g transform="translate(947.625,296.625) scale(3.605)"><path d="M3,6H0V0l6,0v3C6,4.7,4.7,6,3,6z"></path></g>
<g transform="translate(107.625,317.625) scale(3.605)"><path d="M6,6H3C1.3,6,0,4.7,0,3v0c0-1.7,1.3-3,3-3h3C6,0,6,6,6,6z"></path></g>
<g transform="translate(128.625,317.625) scale(3.605)"><path d="M3,6H0V0l6,0v3C6,4.7,4.7,6,3,6z"></path></g>
<g transform="translate(191.625,317.625) scale(3.605)"><path d="M6,6H0V3c0-1.7,1.3-3,3-3h0c1.7,0,3,1.3,3,3V6z"></path></g>
<g transform="translate(233.625,317.625) scale(3.605)"><path d="M6,6H3C1.3,6,0,4.7,0,3v0c0-1.7,1.3-3,3-3h3C6,0,6,6,6,6z"></path></g>
<g transform="translate(254.625,317.625) scale(3.605)"><rect width="6" height="6"></rect></g>
<g transform="translate(275.625,317.625) scale(3.605)"><rect width="6" height="6"></rect></g>
<g transform="translate(296.625,317.625) scale(3.605)"><path d="M3,6H0V0l6,0v3C6,4.7,4.7,6,3,6z"></path></g>
<g transform="translate(338.625,317.625) scale(3.605)"><circle cx="3" cy="3" r="3"></circle></g>
<g transform="translate(380.625,317.625) scale(3.605)"><path d="M6,6H0V3c0-1.7,1.3-3,3-3l3,0V6z"></path></g>
<g transform="translate(401.625,317.625) scale(3.605)"><rect width="6" height="6"></rect></g>
<g transform="translate(485.625,317.625) scale(3.605)"><rect width="6" height="6"></rect></g>
<g transform="translate(527.625,317.625) scale(3.605)"><path d="M6,6H0V3c0-1.7,1.3-3,3-3l3,0V6z"></path></g>
<g transform="translate(548.625,317.625) scale(3.605)"><path d="M3,6H0V0l6,0v3C6,4.7,4.7,6,3,6z"></path></g>
<g transform="translate(611.625,317.625) scale(3.605)"><circle cx="3" cy="3" r="3"></circle></g>
<g transform="translate(674.625,317.625) scale(3.605)"><path d="M6,6H3C1.3,6,0,4.7,0,3v0c0-1.7,1.3-3,3-3h3C6,0,6,6,6,6z"></path></g>
<g transform="translate(695.625,317.625) scale(3.605)"><path d="M3,6H0V0l6,0v3C6,4.7,4.7,6,3,6z"></path></g>
<g transform="translate(737.625,317.625) scale(3.605)"><circle cx="3" cy="3" r="3"></circle></g>
<g transform="translate(779.625,317.625) scale(3.605)"><rect width="6" height="6"></rect></g>
<g transform="translate(821.625,317.625) scale(3.605)"><rect width="6" height="6"></rect></g>
<g transform="translate(842.625,317.625) scale(3.605)"><rect width="6" height="6"></rect></g>
<g transform="translate(863.625,317.625) scale(3.605)"><rect width="6" height="6"></rect></g>
<g transform="translate(170.625,338.625) scale(3.605)"><path d="M6,6H3C1.3,6,0,4.7,0,3v0c0-1.7,1.3-3,3-3h3C6,0,6,6,6,6z"></path></g>
<g transform="translate(191.625,338.625) scale(3.605)"><rect width="6" height="6"></rect></g>
<g transform="translate(212.625,338.625) scale(3.605)"><path d="M3,6H0V0l3,0c1.7,0,3,1.3,3,3v0C6,4.7,4.7,6,3,6z"></path></g>
<g transform="translate(254.625,338.625) scale(3.605)"><rect width="6" height="6"></rect></g>
<g transform="translate(317.625,338.625) scale(3.605)"><circle cx="3" cy="3" r="3"></circle></g>
<g transform="translate(359.625,338.625) scale(3.605)"><path d="M6,6H0V3c0-1.7,1.3-3,3-3l3,0V6z"></path></g>
<g transform="translate(380.625,338.625) scale(3.605)"><rect width="6" height="6"></rect></g>
<g transform="translate(401.625,338.625) scale(3.605)"><rect width="6" height="6"></rect></g>
<g transform="translate(443.625,338.625) scale(3.605)"><path d="M6,6H3C1.3,6,0,4.7,0,3v0c0-1.7,1.3-3,3-3h3C6,0,6,6,6,6z"></path></g>
<g transform="translate(464.625,338.625) scale(3.605)"><rect width="6" height="6"></rect></g>
<g transform="translate(485.625,338.625) scale(3.605)"><rect width="6" height="6"></rect></g>
<g transform="translate(506.625,338.625) scale(3.605)"><rect width="6" height="6"></rect></g>
<g transform="translate(527.625,338.625) scale(3.605)"><rect width="6" height="6"></rect></g>
<g transform="translate(569.625,338.625) scale(3.605)"><circle cx="3" cy="3" r="3"></circle></g>
<g transform="translate(632.625,338.625) scale(3.605)"><path d="M6,6H0V3c0-1.7,1.3-3,3-3h0c1.7,0,3,1.3,3,3V6z"></path></g>
<g transform="translate(758.625,338.625) scale(3.605)"><path d="M6,6H0V3c0-1.7,1.3-3,3-3l3,0V6z"></path></g>
<g transform="translate(779.625,338.625) scale(3.605)"><rect width="6" height="6"></rect></g>
<g transform="translate(800.625,338.625) scale(3.605)"><rect width="6" height="6"></rect></g>
<g transform="translate(821.625,338.625) scale(3.605)"><path d="M3,6H0V0l6,0v3C6,4.7,4.7,6,3,6z"></path></g>
<g transform="translate(863.625,338.625) scale(3.605)"><path d="M6,6H3C1.3,6,0,4.7,0,3V0l6,0V6z"></path></g>
<g transform="translate(884.625,338.625) scale(3.605)"><path d="M6,6H0V0l3,0c1.7,0,3,1.3,3,3V6z"></path></g>
<g transform="translate(107.625,359.625) scale(3.605)"><path d="M6,6H0V3c0-1.7,1.3-3,3-3h0c1.7,0,3,1.3,3,3V6z"></path></g>
<g transform="translate(191.625,359.625) scale(3.605)"><rect width="6" height="6"></rect></g>
<g transform="translate(233.625,359.625) scale(3.605)"><path d="M6,6H3C1.3,6,0,4.7,0,3v0c0-1.7,1.3-3,3-3h3C6,0,6,6,6,6z"></path></g>
<g transform="translate(254.625,359.625) scale(3.605)"><rect width="6" height="6"></rect></g>
<g transform="translate(275.625,359.625) scale(3.605)"><rect width="6" height="6"></rect></g>
<g transform="translate(296.625,359.625) scale(3.605)"><path d="M3,6H0V0l3,0c1.7,0,3,1.3,3,3v0C6,4.7,4.7,6,3,6z"></path></g>
<g transform="translate(338.625,359.625) scale(3.605)"><path d="M6,6H0V3c0-1.7,1.3-3,3-3l3,0V6z"></path></g>
<g transform="translate(359.625,359.625) scale(3.605)"><path d="M3,6H0V0l6,0v3C6,4.7,4.7,6,3,6z"></path></g>
<g transform="translate(401.625,359.625) scale(3.605)"><rect width="6" height="6"></rect></g>
<g transform="translate(527.625,359.625) scale(3.605)"><rect width="6" height="6"></rect></g>
<g transform="translate(548.625,359.625) scale(3.605)"><path d="M3,6H0V0l3,0c1.7,0,3,1.3,3,3v0C6,4.7,4.7,6,3,6z"></path></g>
<g transform="translate(590.625,359.625) scale(3.605)"><path d="M6,6H3C1.3,6,0,4.7,0,3v0c0-1.7,1.3-3,3-3h3C6,0,6,6,6,6z"></path></g>
<g transform="translate(611.625,359.625) scale(3.605)"><rect width="6" height="6"></rect></g>
<g transform="translate(632.625,359.625) scale(3.605)"><rect width="6" height="6"></rect></g>
<g transform="translate(653.625,359.625) scale(3.605)"><rect width="6" height="6"></rect></g>
<g transform="translate(674.625,359.625) scale(3.605)"><rect width="6" height="6"></rect></g>
<g transform="translate(695.625,359.625) scale(3.605)"><rect width="6" height="6"></rect></g>
<g transform="translate(716.625,359.625) scale(3.605)"><path d="M6,6H0V0l3,0c1.7,0,3,1.3,3,3V6z"></path></g>
<g transform="translate(758.625,359.625) scale(3.605)"><rect width="6" height="6"></rect></g>
<g transform="translate(842.625,359.625) scale(3.605)"><circle cx="3" cy="3" r="3"></circle></g>
<g transform="translate(884.625,359.625) scale(3.605)"><rect width="6" height="6"></rect></g>
<g transform="translate(905.625,359.625) scale(3.605)"><path d="M3,6H0V0l3,0c1.7,0,3,1.3,3,3v0C6,4.7,4.7,6,3,6z"></path></g>
<g transform="translate(107.625,380.625) scale(3.605)"><rect width="6" height="6"></rect></g>
<g transform="translate(128.625,380.625) scale(3.605)"><path d="M6,6H0V0l3,0c1.7,0,3,1.3,3,3V6z"></path></g>
<g transform="translate(191.625,380.625) scale(3.605)"><path d="M3,6L3,6C1.3,6,0,4.7,0,3V0h6v3C6,4.7,4.7,6,3,6z"></path></g>
<g transform="translate(254.625,380.625) scale(3.605)"><path d="M6,6H3C1.3,6,0,4.7,0,3V0l6,0V6z"></path></g>
<g transform="translate(275.625,380.625) scale(3.605)"><path d="M3,6H0V0l6,0v3C6,4.7,4.7,6,3,6z"></path></g>
<g transform="translate(338.625,380.625) scale(3.605)"><path d="M3,6L3,6C1.3,6,0,4.7,0,3V0h6v3C6,4.7,4.7,6,3,6z"></path></g>
<g transform="translate(401.625,380.625) scale(3.605)"><rect width="6" height="6"></rect></g>
<g transform="translate(485.625,380.625) scale(3.605)"><circle cx="3" cy="3" r="3"></circle></g>
<g transform="translate(527.625,380.625) scale(3.605)"><path d="M3,6L3,6C1.3,6,0,4.7,0,3V0h6v3C6,4.7,4.7,6,3,6z"></path></g>
<g transform="translate(611.625,380.625) scale(3.605)"><rect width="6" height="6"></rect></g>
<g transform="translate(632.625,380.625) scale(3.605)"><path d="M3,6H0V0l6,0v3C6,4.7,4.7,6,3,6z"></path></g>
<g transform="translate(674.625,380.625) scale(3.605)"><rect width="6" height="6"></rect></g>
<g transform="translate(716.625,380.625) scale(3.605)"><rect width="6" height="6"></rect></g>
<g transform="translate(737.625,380.625) scale(3.605)"><rect width="6" height="6"></rect></g>
<g transform="translate(758.625,380.625) scale(3.605)"><path d="M3,6H0V0l6,0v3C6,4.7,4.7,6,3,6z"></path></g>
<g transform="translate(800.625,380.625) scale(3.605)"><path d="M6,6H0V3c0-1.7,1.3-3,3-3l3,0V6z"></path></g>
<g transform="translate(821.625,380.625) scale(3.605)"><path d="M3,6H0V0l3,0c1.7,0,3,1.3,3,3v0C6,4.7,4.7,6,3,6z"></path></g>
<g transform="translate(863.625,380.625) scale(3.605)"><path d="M6,6H0V3c0-1.7,1.3-3,3-3l3,0V6z"></path></g>
<g transform="translate(884.625,380.625) scale(3.605)"><rect width="6" height="6"></rect></g>
<g transform="translate(926.625,380.625) scale(3.605)"><path d="M6,6H3C1.3,6,0,4.7,0,3v0c0-1.7,1.3-3,3-3h3C6,0,6,6,6,6z"></path></g>
<g transform="translate(947.625,380.625) scale(3.605)"><path d="M3,6H0V0l3,0c1.7,0,3,1.3,3,3v0C6,4.7,4.7,6,3,6z"></path></g>
<g transform="translate(107.625,401.625) scale(3.605)"><path d="M6,6H3C1.3,6,0,4.7,0,3V0l6,0V6z"></path></g>
<g transform="translate(128.625,401.625) scale(3.605)"><path d="M3,6H0V0l6,0v3C6,4.7,4.7,6,3,6z"></path></g>
<g transform="translate(170.625,401.625) scale(3.605)"><path d="M6,6H0V3c0-1.7,1.3-3,3-3h0c1.7,0,3,1.3,3,3V6z"></path></g>
<g transform="translate(212.625,401.625) scale(3.605)"><path d="M6,6H3C1.3,6,0,4.7,0,3v0c0-1.7,1.3-3,3-3h3C6,0,6,6,6,6z"></path></g>
<g transform="translate(233.625,401.625) scale(3.605)"><path d="M3,6H0V0l3,0c1.7,0,3,1.3,3,3v0C6,4.7,4.7,6,3,6z"></path></g>
<g transform="translate(317.625,401.625) scale(3.605)"><circle cx="3" cy="3" r="3"></circle></g>
<g transform="translate(380.625,401.625) scale(3.605)"><path d="M6,6H3C1.3,6,0,4.7,0,3v0c0-1.7,1.3-3,3-3h3C6,0,6,6,6,6z"></path></g>
<g transform="translate(401.625,401.625) scale(3.605)"><rect width="6" height="6"></rect></g>
<g transform="translate(422.625,401.625) scale(3.605)"><rect width="6" height="6"></rect></g>
<g transform="translate(443.625,401.625) scale(3.605)"><rect width="6" height="6"></rect></g>
<g transform="translate(464.625,401.625) scale(3.605)"><path d="M6,6H0V0l3,0c1.7,0,3,1.3,3,3V6z"></path></g>
<g transform="translate(611.625,401.625) scale(3.605)"><path d="M3,6L3,6C1.3,6,0,4.7,0,3V0h6v3C6,4.7,4.7,6,3,6z"></path></g>
<g transform="translate(653.625,401.625) scale(3.605)"><path d="M6,6H0V3c0-1.7,1.3-3,3-3l3,0V6z"></path></g>
<g transform="translate(674.625,401.625) scale(3.605)"><rect width="6" height="6"></rect></g>
<g transform="translate(695.625,401.625) scale(3.605)"><rect width="6" height="6"></rect></g>
<g transform="translate(716.625,401.625) scale(3.605)"><path d="M3,6H0V0l6,0v3C6,4.7,4.7,6,3,6z"></path></g>
<g transform="translate(779.625,401.625) scale(3.605)"><path d="M6,6H0V3c0-1.7,1.3-3,3-3l3,0V6z"></path></g>
<g transform="translate(800.625,401.625) scale(3.605)"><path d="M3,6H0V0l6,0v3C6,4.7,4.7,6,3,6z"></path></g>
<g transform="translate(842.625,401.625) scale(3.605)"><path d="M6,6H0V3c0-1.7,1.3-3,3-3l3,0V6z"></path></g>
<g transform="translate(863.625,401.625) scale(3.605)"><rect width="6" height="6"></rect></g>
<g transform="translate(884.625,401.625) scale(3.605)"><rect width="6" height="6"></rect></g>
<g transform="translate(170.625,422.625) scale(3.605)"><path d="M6,6H3C1.3,6,0,4.7,0,3V0l6,0V6z"></path></g>
<g transform="translate(191.625,422.625) scale(3.605)"><path d="M6,6H0V0l3,0c1.7,0,3,1.3,3,3V6z"></path></g>
<g transform="translate(254.625,422.625) scale(3.605)"><path d="M6,6H0V3c0-1.7,1.3-3,3-3l3,0V6z"></path></g>
<g transform="translate(275.625,422.625) scale(3.605)"><path d="M6,6H0V0l3,0c1.7,0,3,1.3,3,3V6z"></path></g>
<g transform="translate(359.625,422.625) scale(3.605)"><path d="M6,6H0V3c0-1.7,1.3-3,3-3h0c1.7,0,3,1.3,3,3V6z"></path></g>
<g transform="translate(401.625,422.625) scale(3.605)"><path d="M6,6H3C1.3,6,0,4.7,0,3V0l6,0V6z"></path></g>
<g transform="translate(422.625,422.625) scale(3.605)"><rect width="6" height="6"></rect></g>
<g transform="translate(443.625,422.625) scale(3.605)"><rect width="6" height="6"></rect></g>
<g transform="translate(464.625,422.625) scale(3.605)"><rect width="6" height="6"></rect></g>
<g transform="translate(485.625,422.625) scale(3.605)"><rect width="6" height="6"></rect></g>
<g transform="translate(506.625,422.625) scale(3.605)"><rect width="6" height="6"></rect></g>
<g transform="translate(527.625,422.625) scale(3.605)"><rect width="6" height="6"></rect></g>
<g transform="translate(548.625,422.625) scale(3.605)"><rect width="6" height="6"></rect></g>
<g transform="translate(569.625,422.625) scale(3.605)"><rect width="6" height="6"></rect></g>
<g transform="translate(590.625,422.625) scale(3.605)"><path d="M3,6H0V0l3,0c1.7,0,3,1.3,3,3v0C6,4.7,4.7,6,3,6z"></path></g>
<g transform="translate(653.625,422.625) scale(3.605)"><rect width="6" height="6"></rect></g>
<g transform="translate(674.625,422.625) scale(3.605)"><rect width="6" height="6"></rect></g>
<g transform="translate(737.625,422.625) scale(3.605)"><circle cx="3" cy="3" r="3"></circle></g>
<g transform="translate(779.625,422.625) scale(3.605)"><path d="M3,6L3,6C1.3,6,0,4.7,0,3V0h6v3C6,4.7,4.7,6,3,6z"></path></g>
<g transform="translate(821.625,422.625) scale(3.605)"><path d="M6,6H3C1.3,6,0,4.7,0,3v0c0-1.7,1.3-3,3-3h3C6,0,6,6,6,6z"></path></g>
<g transform="translate(842.625,422.625) scale(3.605)"><rect width="6" height="6"></rect></g>
<g transform="translate(884.625,422.625) scale(3.605)"><path d="M3,6L3,6C1.3,6,0,4.7,0,3V0h6v3C6,4.7,4.7,6,3,6z"></path></g>
<g transform="translate(926.625,422.625) scale(3.605)"><path d="M6,6H0V3c0-1.7,1.3-3,3-3h0c1.7,0,3,1.3,3,3V6z"></path></g>
<g transform="translate(128.625,443.625) scale(3.605)"><path d="M6,6H3C1.3,6,0,4.7,0,3v0c0-1.7,1.3-3,3-3h3C6,0,6,6,6,6z"></path></g>
<g transform="translate(149.625,443.625) scale(3.605)"><path d="M6,6H0V0l3,0c1.7,0,3,1.3,3,3V6z"></path></g>
<g transform="translate(191.625,443.625) scale(3.605)"><path d="M6,6H3C1.3,6,0,4.7,0,3V0l6,0V6z"></path></g>
<g transform="translate(212.625,443.625) scale(3.605)"><rect width="6" height="6"></rect></g>
<g transform="translate(233.625,443.625) scale(3.605)"><rect width="6" height="6"></rect></g>
<g transform="translate(254.625,443.625) scale(3.605)"><rect width="6" height="6"></rect></g>
<g transform="translate(275.625,443.625) scale(3.605)"><path d="M3,6H0V0l6,0v3C6,4.7,4.7,6,3,6z"></path></g>
<g transform="translate(359.625,443.625) scale(3.605)"><path d="M6,6H3C1.3,6,0,4.7,0,3V0l6,0V6z"></path></g>
<g transform="translate(380.625,443.625) scale(3.605)"><path d="M3,6H0V0l3,0c1.7,0,3,1.3,3,3v0C6,4.7,4.7,6,3,6z"></path></g>
<g transform="translate(422.625,443.625) scale(3.605)"><rect width="6" height="6"></rect></g>
<g transform="translate(443.625,443.625) scale(3.605)"><rect width="6" height="6"></rect></g>
<g transform="translate(464.625,443.625) scale(3.605)"><rect width="6" height="6"></rect></g>
<g transform="translate(527.625,443.625) scale(3.605)"><rect width="6" height="6"></rect></g>
<g transform="translate(569.625,443.625) scale(3.605)"><rect width="6" height="6"></rect></g>
<g transform="translate(653.625,443.625) scale(3.605)"><rect width="6" height="6"></rect></g>
<g transform="translate(674.625,443.625) scale(3.605)"><path d="M3,6H0V0l6,0v3C6,4.7,4.7,6,3,6z"></path></g>
<g transform="translate(716.625,443.625) scale(3.605)"><path d="M6,6H0V3c0-1.7,1.3-3,3-3h0c1.7,0,3,1.3,3,3V6z"></path></g>
<g transform="translate(758.625,443.625) scale(3.605)"><path d="M6,6H0V3c0-1.7,1.3-3,3-3h0c1.7,0,3,1.3,3,3V6z"></path></g>
<g transform="translate(800.625,443.625) scale(3.605)"><circle cx="3" cy="3" r="3"></circle></g>
<g transform="translate(842.625,443.625) scale(3.605)"><rect width="6" height="6"></rect></g>
<g transform="translate(905.625,443.625) scale(3.605)"><path d="M6,6H0V3c0-1.7,1.3-3,3-3l3,0V6z"></path></g>
<g transform="translate(926.625,443.625) scale(3.605)"><rect width="6" height="6"></rect></g>
<g transform="translate(149.625,464.625) scale(3.605)"><rect width="6" height="6"></rect></g>
<g transform="translate(254.625,464.625) scale(3.605)"><rect width="6" height="6"></rect></g>
<g transform="translate(317.625,464.625) scale(3.605)"><path d="M6,6H3C1.3,6,0,4.7,0,3v0c0-1.7,1.3-3,3-3h3C6,0,6,6,6,6z"></path></g>
<g transform="translate(338.625,464.625) scale(3.605)"><path d="M6,6H0V0l3,0c1.7,0,3,1.3,3,3V6z"></path></g>
<g transform="translate(422.625,464.625) scale(3.605)"><path d="M6,6H3C1.3,6,0,4.7,0,3V0l6,0V6z"></path></g>
<g transform="translate(443.625,464.625) scale(3.605)"><rect width="6" height="6"></rect></g>
<g transform="translate(464.625,464.625) scale(3.605)"><rect width="6" height="6"></rect></g>
<g transform="translate(506.625,464.625) scale(3.605)"><path d="M6,6H3C1.3,6,0,4.7,0,3v0c0-1.7,1.3-3,3-3h3C6,0,6,6,6,6z"></path></g>
<g transform="translate(527.625,464.625) scale(3.605)"><rect width="6" height="6"></rect></g>
<g transform="translate(548.625,464.625) scale(3.605)"><rect width="6" height="6"></rect></g>
<g transform="translate(569.625,464.625) scale(3.605)"><rect width="6" height="6"></rect></g>
<g transform="translate(611.625,464.625) scale(3.605)"><path d="M6,6H0V3c0-1.7,1.3-3,3-3l3,0V6z"></path></g>
<g transform="translate(632.625,464.625) scale(3.605)"><rect width="6" height="6"></rect></g>
<g transform="translate(653.625,464.625) scale(3.605)"><rect width="6" height="6"></rect></g>
<g transform="translate(695.625,464.625) scale(3.605)"><path d="M6,6H3C1.3,6,0,4.7,0,3v0c0-1.7,1.3-3,3-3h3C6,0,6,6,6,6z"></path></g>
<g transform="translate(716.625,464.625) scale(3.605)"><rect width="6" height="6"></rect></g>
<g transform="translate(737.625,464.625) scale(3.605)"><rect width="6" height="6"></rect></g>
<g transform="translate(758.625,464.625) scale(3.605)"><rect width="6" height="6"></rect></g>
<g transform="translate(779.625,464.625) scale(3.605)"><path d="M6,6H0V0l3,0c1.7,0,3,1.3,3,3V6z"></path></g>
<g transform="translate(821.625,464.625) scale(3.605)"><path d="M6,6H3C1.3,6,0,4.7,0,3v0c0-1.7,1.3-3,3-3h3C6,0,6,6,6,6z"></path></g>
<g transform="translate(842.625,464.625) scale(3.605)"><rect width="6" height="6"></rect></g>
<g transform="translate(863.625,464.625) scale(3.605)"><rect width="6" height="6"></rect></g>
<g transform="translate(884.625,464.625) scale(3.605)"><rect width="6" height="6"></rect></g>
<g transform="translate(905.625,464.625) scale(3.605)"><rect width="6" height="6"></rect></g>
<g transform="translate(926.625,464.625) scale(3.605)"><rect width="6" height="6"></rect></g>
<g transform="translate(947.625,464.625) scale(3.605)"><path d="M3,6H0V0l3,0c1.7,0,3,1.3,3,3v0C6,4.7,4.7,6,3,6z"></path></g>
<g transform="translate(128.625,485.625) scale(3.605)"><path d="M6,6H0V3c0-1.7,1.3-3,3-3l3,0V6z"></path></g>
<g transform="translate(149.625,485.625) scale(3.605)"><rect width="6" height="6"></rect></g>
<g transform="translate(191.625,485.625) scale(3.605)"><path d="M6,6H0V3c0-1.7,1.3-3,3-3h0c1.7,0,3,1.3,3,3V6z"></path></g>
<g transform="translate(233.625,485.625) scale(3.605)"><path d="M6,6H3C1.3,6,0,4.7,0,3v0c0-1.7,1.3-3,3-3h3C6,0,6,6,6,6z"></path></g>
<g transform="translate(254.625,485.625) scale(3.605)"><path d="M3,6H0V0l6,0v3C6,4.7,4.7,6,3,6z"></path></g>
<g transform="translate(338.625,485.625) scale(3.605)"><rect width="6" height="6"></rect></g>
<g transform="translate(443.625,485.625) scale(3.605)"><rect width="6" height="6"></rect></g>
<g transform="translate(464.625,485.625) scale(3.605)"><path d="M3,6H0V0l6,0v3C6,4.7,4.7,6,3,6z"></path></g>
<g transform="translate(527.625,485.625) scale(3.605)"><rect width="6" height="6"></rect></g>
<g transform="translate(548.625,485.625) scale(3.605)"><rect width="6" height="6"></rect></g>
<g transform="translate(569.625,485.625) scale(3.605)"><path d="M3,6H0V0l6,0v3C6,4.7,4.7,6,3,6z"></path></g>
<g transform="translate(611.625,485.625) scale(3.605)"><rect width="6" height="6"></rect></g>
<g transform="translate(653.625,485.625) scale(3.605)"><rect width="6" height="6"></rect></g>
<g transform="translate(674.625,485.625) scale(3.605)"><path d="M3,6H0V0l3,0c1.7,0,3,1.3,3,3v0C6,4.7,4.7,6,3,6z"></path></g>
<g transform="translate(716.625,485.625) scale(3.605)"><rect width="6" height="6"></rect></g>
<g transform="translate(779.625,485.625) scale(3.605)"><rect width="6" height="6"></rect></g>
<g transform="translate(800.625,485.625) scale(3.605)"><path d="M6,6H0V0l3,0c1.7,0,3,1.3,3,3V6z"></path></g>
<g transform="translate(863.625,485.625) scale(3.605)"><rect width="6" height="6"></rect></g>
<g transform="translate(107.625,506.625) scale(3.605)"><path d="M6,6H3C1.3,6,0,4.7,0,3v0c0-1.7,1.3-3,3-3h3C6,0,6,6,6,6z"></path></g>
<g transform="translate(128.625,506.625) scale(3.605)"><rect width="6" height="6"></rect></g>
<g transform="translate(149.625,506.625) scale(3.605)"><path d="M3,6H0V0l6,0v3C6,4.7,4.7,6,3,6z"></path></g>
<g transform="translate(191.625,506.625) scale(3.605)"><path d="M3,6L3,6C1.3,6,0,4.7,0,3V0h6v3C6,4.7,4.7,6,3,6z"></path></g>
<g transform="translate(296.625,506.625) scale(3.605)"><path d="M6,6H0V3c0-1.7,1.3-3,3-3h0c1.7,0,3,1.3,3,3V6z"></path></g>
<g transform="translate(338.625,506.625) scale(3.605)"><rect width="6" height="6"></rect></g>
<g transform="translate(359.625,506.625) scale(3.605)"><rect width="6" height="6"></rect></g>
<g transform="translate(380.625,506.625) scale(3.605)"><path d="M3,6H0V0l3,0c1.7,0,3,1.3,3,3v0C6,4.7,4.7,6,3,6z"></path></g>
<g transform="translate(422.625,506.625) scale(3.605)"><path d="M6,6H3C1.3,6,0,4.7,0,3v0c0-1.7,1.3-3,3-3h3C6,0,6,6,6,6z"></path></g>
<g transform="translate(443.625,506.625) scale(3.605)"><path d="M3,6H0V0l6,0v3C6,4.7,4.7,6,3,6z"></path></g>
<g transform="translate(485.625,506.625) scale(3.605)"><circle cx="3" cy="3" r="3"></circle></g>
<g transform="translate(527.625,506.625) scale(3.605)"><rect width="6" height="6"></rect></g>
<g transform="translate(590.625,506.625) scale(3.605)"><path d="M6,6H0V3c0-1.7,1.3-3,3-3l3,0V6z"></path></g>
<g transform="translate(611.625,506.625) scale(3.605)"><path d="M3,6H0V0l6,0v3C6,4.7,4.7,6,3,6z"></path></g>
<g transform="translate(653.625,506.625) scale(3.605)"><rect width="6" height="6"></rect></g>
<g transform="translate(716.625,506.625) scale(3.605)"><path d="M6,6H3C1.3,6,0,4.7,0,3V0l6,0V6z"></path></g>
<g transform="translate(737.625,506.625) scale(3.605)"><rect width="6" height="6"></rect></g>
<g transform="translate(758.625,506.625) scale(3.605)"><rect width="6" height="6"></rect></g>
<g transform="translate(779.625,506.625) scale(3.605)"><rect width="6" height="6"></rect></g>
<g transform="translate(800.625,506.625) scale(3.605)"><rect width="6" height="6"></rect></g>
<g transform="translate(821.625,506.625) scale(3.605)"><path d="M3,6H0V0l3,0c1.7,0,3,1.3,3,3v0C6,4.7,4.7,6,3,6z"></path></g>
<g transform="translate(863.625,506.625) scale(3.605)"><path d="M6,6H3C1.3,6,0,4.7,0,3V0l6,0V6z"></path></g>
<g transform="translate(884.625,506.625) scale(3.605)"><path d="M3,6H0V0l3,0c1.7,0,3,1.3,3,3v0C6,4.7,4.7,6,3,6z"></path></g>
<g transform="translate(128.625,527.625) scale(3.605)"><path d="M3,6L3,6C1.3,6,0,4.7,0,3V0h6v3C6,4.7,4.7,6,3,6z"></path></g>
<g transform="translate(233.625,527.625) scale(3.605)"><circle cx="3" cy="3" r="3"></circle></g>
<g transform="translate(275.625,527.625) scale(3.605)"><path d="M6,6H0V3c0-1.7,1.3-3,3-3l3,0V6z"></path></g>
<g transform="translate(296.625,527.625) scale(3.605)"><rect width="6" height="6"></rect></g>
<g transform="translate(338.625,527.625) scale(3.605)"><rect width="6" height="6"></rect></g>
<g transform="translate(401.625,527.625) scale(3.605)"><circle cx="3" cy="3" r="3"></circle></g>
<g transform="translate(506.625,527.625) scale(3.605)"><path d="M6,6H0V3c0-1.7,1.3-3,3-3l3,0V6z"></path></g>
<g transform="translate(527.625,527.625) scale(3.605)"><rect width="6" height="6"></rect></g>
<g transform="translate(548.625,527.625) scale(3.605)"><rect width="6" height="6"></rect></g>
<g transform="translate(569.625,527.625) scale(3.605)"><rect width="6" height="6"></rect></g>
<g transform="translate(590.625,527.625) scale(3.605)"><rect width="6" height="6"></rect></g>
<g transform="translate(653.625,527.625) scale(3.605)"><rect width="6" height="6"></rect></g>
<g transform="translate(674.625,527.625) scale(3.605)"><path d="M3,6H0V0l3,0c1.7,0,3,1.3,3,3v0C6,4.7,4.7,6,3,6z"></path></g>
<g transform="translate(758.625,527.625) scale(3.605)"><rect width="6" height="6"></rect></g>
<g transform="translate(800.625,527.625) scale(3.605)"><rect width="6" height="6"></rect></g>
<g transform="translate(905.625,527.625) scale(3.605)"><circle cx="3" cy="3" r="3"></circle></g>
<g transform="translate(947.625,527.625) scale(3.605)"><path d="M6,6H0V3c0-1.7,1.3-3,3-3h0c1.7,0,3,1.3,3,3V6z"></path></g>
<g transform="translate(107.625,548.625) scale(3.605)"><circle cx="3" cy="3" r="3"></circle></g>
<g transform="translate(212.625,548.625) scale(3.605)"><circle cx="3" cy="3" r="3"></circle></g>
<g transform="translate(254.625,548.625) scale(3.605)"><path d="M6,6H0V3c0-1.7,1.3-3,3-3l3,0V6z"></path></g>
<g transform="translate(275.625,548.625) scale(3.605)"><rect width="6" height="6"></rect></g>
<g transform="translate(296.625,548.625) scale(3.605)"><rect width="6" height="6"></rect></g>
<g transform="translate(317.625,548.625) scale(3.605)"><rect width="6" height="6"></rect></g>
<g transform="translate(338.625,548.625) scale(3.605)"><rect width="6" height="6"></rect></g>
<g transform="translate(464.625,548.625) scale(3.605)"><path d="M6,6H0V3c0-1.7,1.3-3,3-3l3,0V6z"></path></g>
<g transform="translate(485.625,548.625) scale(3.605)"><rect width="6" height="6"></rect></g>
<g transform="translate(506.625,548.625) scale(3.605)"><rect width="6" height="6"></rect></g>
<g transform="translate(548.625,548.625) scale(3.605)"><path d="M6,6H3C1.3,6,0,4.7,0,3V0l6,0V6z"></path></g>
<g transform="translate(569.625,548.625) scale(3.605)"><rect width="6" height="6"></rect></g>
<g transform="translate(590.625,548.625) scale(3.605)"><rect width="6" height="6"></rect></g>
<g transform="translate(611.625,548.625) scale(3.605)"><rect width="6" height="6"></rect></g>
<g transform="translate(632.625,548.625) scale(3.605)"><rect width="6" height="6"></rect></g>
<g transform="translate(653.625,548.625) scale(3.605)"><path d="M3,6H0V0l6,0v3C6,4.7,4.7,6,3,6z"></path></g>
<g transform="translate(695.625,548.625) scale(3.605)"><path d="M6,6H0V3c0-1.7,1.3-3,3-3h0c1.7,0,3,1.3,3,3V6z"></path></g>
<g transform="translate(737.625,548.625) scale(3.605)"><path d="M6,6H0V3c0-1.7,1.3-3,3-3l3,0V6z"></path></g>
<g transform="translate(758.625,548.625) scale(3.605)"><rect width="6" height="6"></rect></g>
<g transform="translate(779.625,548.625) scale(3.605)"><rect width="6" height="6"></rect></g>
<g transform="translate(800.625,548.625) scale(3.605)"><rect width="6" height="6"></rect></g>
<g transform="translate(821.625,548.625) scale(3.605)"><path d="M3,6H0V0l3,0c1.7,0,3,1.3,3,3v0C6,4.7,4.7,6,3,6z"></path></g>
<g transform="translate(863.625,548.625) scale(3.605)"><path d="M6,6H0V3c0-1.7,1.3-3,3-3h0c1.7,0,3,1.3,3,3V6z"></path></g>
<g transform="translate(926.625,548.625) scale(3.605)"><path d="M6,6H3C1.3,6,0,4.7,0,3v0c0-1.7,1.3-3,3-3h3C6,0,6,6,6,6z"></path></g>
<g transform="translate(947.625,548.625) scale(3.605)"><path d="M3,6H0V0l6,0v3C6,4.7,4.7,6,3,6z"></path></g>
<g transform="translate(128.625,569.625) scale(3.605)"><path d="M6,6H3C1.3,6,0,4.7,0,3v0c0-1.7,1.3-3,3-3h3C6,0,6,6,6,6z"></path></g>
<g transform="translate(149.625,569.625) scale(3.605)"><rect width="6" height="6"></rect></g>
<g transform="translate(170.625,569.625) scale(3.605)"><path d="M3,6H0V0l3,0c1.7,0,3,1.3,3,3v0C6,4.7,4.7,6,3,6z"></path></g>
<g transform="translate(233.625,569.625) scale(3.605)"><path d="M6,6H3C1.3,6,0,4.7,0,3v0c0-1.7,1.3-3,3-3h3C6,0,6,6,6,6z"></path></g>
<g transform="translate(254.625,569.625) scale(3.605)"><path d="M3,6H0V0l6,0v3C6,4.7,4.7,6,3,6z"></path></g>
<g transform="translate(296.625,569.625) scale(3.605)"><rect width="6" height="6"></rect></g>
<g transform="translate(338.625,569.625) scale(3.605)"><path d="M3,6L3,6C1.3,6,0,4.7,0,3V0h6v3C6,4.7,4.7,6,3,6z"></path></g>
<g transform="translate(422.625,569.625) scale(3.605)"><path d="M6,6H0V3c0-1.7,1.3-3,3-3h0c1.7,0,3,1.3,3,3V6z"></path></g>
<g transform="translate(464.625,569.625) scale(3.605)"><path d="M3,6L3,6C1.3,6,0,4.7,0,3V0h6v3C6,4.7,4.7,6,3,6z"></path></g>
<g transform="translate(506.625,569.625) scale(3.605)"><rect width="6" height="6"></rect></g>
<g transform="translate(527.625,569.625) scale(3.605)"><path d="M6,6H0V0l3,0c1.7,0,3,1.3,3,3V6z"></path></g>
<g transform="translate(674.625,569.625) scale(3.605)"><path d="M6,6H0V3c0-1.7,1.3-3,3-3l3,0V6z"></path></g>
<g transform="translate(695.625,569.625) scale(3.605)"><rect width="6" height="6"></rect></g>
<g transform="translate(716.625,569.625) scale(3.605)"><rect width="6" height="6"></rect></g>
<g transform="translate(737.625,569.625) scale(3.605)"><path d="M3,6H0V0l6,0v3C6,4.7,4.7,6,3,6z"></path></g>
<g transform="translate(863.625,569.625) scale(3.605)"><rect width="6" height="6"></rect></g>
<g transform="translate(884.625,569.625) scale(3.605)"><path d="M6,6H0V0l3,0c1.7,0,3,1.3,3,3V6z"></path></g>
<g transform="translate(107.625,590.625) scale(3.605)"><path d="M6,6H0V3c0-1.7,1.3-3,3-3h0c1.7,0,3,1.3,3,3V6z"></path></g>
<g transform="translate(296.625,590.625) scale(3.605)"><rect width="6" height="6"></rect></g>
<g transform="translate(422.625,590.625) scale(3.605)"><path d="M6,6H3C1.3,6,0,4.7,0,3V0l6,0V6z"></path></g>
<g transform="translate(443.625,590.625) scale(3.605)"><path d="M6,6H0V0l3,0c1.7,0,3,1.3,3,3V6z"></path></g>
<g transform="translate(506.625,590.625) scale(3.605)"><rect width="6" height="6"></rect></g>
<g transform="translate(527.625,590.625) scale(3.605)"><path d="M3,6H0V0l6,0v3C6,4.7,4.7,6,3,6z"></path></g>
<g transform="translate(590.625,590.625) scale(3.605)"><circle cx="3" cy="3" r="3"></circle></g>
<g transform="translate(632.625,590.625) scale(3.605)"><path d="M6,6H3C1.3,6,0,4.7,0,3v0c0-1.7,1.3-3,3-3h3C6,0,6,6,6,6z"></path></g>
<g transform="translate(653.625,590.625) scale(3.605)"><rect width="6" height="6"></rect></g>
<g transform="translate(674.625,590.625) scale(3.605)"><rect width="6" height="6"></rect></g>
<g transform="translate(695.625,590.625) scale(3.605)"><rect width="6" height="6"></rect></g>
<g transform="translate(758.625,590.625) scale(3.605)"><circle cx="3" cy="3" r="3"></circle></g>
<g transform="translate(800.625,590.625) scale(3.605)"><circle cx="3" cy="3" r="3"></circle></g>
<g transform="translate(863.625,590.625) scale(3.605)"><path d="M6,6H3C1.3,6,0,4.7,0,3V0l6,0V6z"></path></g>
<g transform="translate(884.625,590.625) scale(3.605)"><rect width="6" height="6"></rect></g>
<g transform="translate(107.625,611.625) scale(3.605)"><rect width="6" height="6"></rect></g>
<g transform="translate(149.625,611.625) scale(3.605)"><path d="M6,6H3C1.3,6,0,4.7,0,3v0c0-1.7,1.3-3,3-3h3C6,0,6,6,6,6z"></path></g>
<g transform="translate(170.625,611.625) scale(3.605)"><rect width="6" height="6"></rect></g>
<g transform="translate(191.625,611.625) scale(3.605)"><path d="M6,6H0V0l3,0c1.7,0,3,1.3,3,3V6z"></path></g>
<g transform="translate(233.625,611.625) scale(3.605)"><path d="M6,6H3C1.3,6,0,4.7,0,3v0c0-1.7,1.3-3,3-3h3C6,0,6,6,6,6z"></path></g>
<g transform="translate(254.625,611.625) scale(3.605)"><rect width="6" height="6"></rect></g>
<g transform="translate(275.625,611.625) scale(3.605)"><rect width="6" height="6"></rect></g>
<g transform="translate(296.625,611.625) scale(3.605)"><rect width="6" height="6"></rect></g>
<g transform="translate(317.625,611.625) scale(3.605)"><path d="M3,6H0V0l3,0c1.7,0,3,1.3,3,3v0C6,4.7,4.7,6,3,6z"></path></g>
<g transform="translate(359.625,611.625) scale(3.605)"><path d="M6,6H0V3c0-1.7,1.3-3,3-3h0c1.7,0,3,1.3,3,3V6z"></path></g>
<g transform="translate(401.625,611.625) scale(3.605)"><circle cx="3" cy="3" r="3"></circle></g>
<g transform="translate(443.625,611.625) scale(3.605)"><rect width="6" height="6"></rect></g>
<g transform="translate(485.625,611.625) scale(3.605)"><path d="M6,6H0V3c0-1.7,1.3-3,3-3l3,0V6z"></path></g>
<g transform="translate(506.625,611.625) scale(3.605)"><path d="M3,6H0V0l6,0v3C6,4.7,4.7,6,3,6z"></path></g>
<g transform="translate(548.625,611.625) scale(3.605)"><path d="M6,6H3C1.3,6,0,4.7,0,3v0c0-1.7,1.3-3,3-3h3C6,0,6,6,6,6z"></path></g>
<g transform="translate(569.625,611.625) scale(3.605)"><path d="M3,6H0V0l3,0c1.7,0,3,1.3,3,3v0C6,4.7,4.7,6,3,6z"></path></g>
<g transform="translate(653.625,611.625) scale(3.605)"><rect width="6" height="6"></rect></g>
<g transform="translate(695.625,611.625) scale(3.605)"><rect width="6" height="6"></rect></g>
<g transform="translate(716.625,611.625) scale(3.605)"><path d="M3,6H0V0l3,0c1.7,0,3,1.3,3,3v0C6,4.7,4.7,6,3,6z"></path></g>
<g transform="translate(884.625,611.625) scale(3.605)"><rect width="6" height="6"></rect></g>
<g transform="translate(905.625,611.625) scale(3.605)"><path d="M3,6H0V0l3,0c1.7,0,3,1.3,3,3v0C6,4.7,4.7,6,3,6z"></path></g>
<g transform="translate(107.625,632.625) scale(3.605)"><path d="M3,6L3,6C1.3,6,0,4.7,0,3V0h6v3C6,4.7,4.7,6,3,6z"></path></g>
<g transform="translate(191.625,632.625) scale(3.605)"><path d="M6,6H3C1.3,6,0,4.7,0,3V0l6,0V6z"></path></g>
<g transform="translate(212.625,632.625) scale(3.605)"><path d="M6,6H0V0l3,0c1.7,0,3,1.3,3,3V6z"></path></g>
<g transform="translate(275.625,632.625) scale(3.605)"><path d="M6,6H3C1.3,6,0,4.7,0,3V0l6,0V6z"></path></g>
<g transform="translate(296.625,632.625) scale(3.605)"><path d="M3,6H0V0l6,0v3C6,4.7,4.7,6,3,6z"></path></g>
<g transform="translate(338.625,632.625) scale(3.605)"><path d="M6,6H3C1.3,6,0,4.7,0,3v0c0-1.7,1.3-3,3-3h3C6,0,6,6,6,6z"></path></g>
<g transform="translate(359.625,632.625) scale(3.605)"><rect width="6" height="6"></rect></g>
<g transform="translate(380.625,632.625) scale(3.605)"><path d="M3,6H0V0l3,0c1.7,0,3,1.3,3,3v0C6,4.7,4.7,6,3,6z"></path></g>
<g transform="translate(443.625,632.625) scale(3.605)"><path d="M6,6H3C1.3,6,0,4.7,0,3V0l6,0V6z"></path></g>
<g transform="translate(464.625,632.625) scale(3.605)"><rect width="6" height="6"></rect></g>
<g transform="translate(485.625,632.625) scale(3.605)"><rect width="6" height="6"></rect></g>
<g transform="translate(527.625,632.625) scale(3.605)"><circle cx="3" cy="3" r="3"></circle></g>
<g transform="translate(611.625,632.625) scale(3.605)"><path d="M6,6H0V3c0-1.7,1.3-3,3-3h0c1.7,0,3,1.3,3,3V6z"></path></g>
<g transform="translate(653.625,632.625) scale(3.605)"><rect width="6" height="6"></rect></g>
<g transform="translate(695.625,632.625) scale(3.605)"><rect width="6" height="6"></rect></g>
<g transform="translate(758.625,632.625) scale(3.605)"><circle cx="3" cy="3" r="3"></circle></g>
<g transform="translate(800.625,632.625) scale(3.605)"><path d="M6,6H0V3c0-1.7,1.3-3,3-3l3,0V6z"></path></g>
<g transform="translate(821.625,632.625) scale(3.605)"><rect width="6" height="6"></rect></g>
<g transform="translate(842.625,632.625) scale(3.605)"><rect width="6" height="6"></rect></g>
<g transform="translate(863.625,632.625) scale(3.605)"><rect width="6" height="6"></rect></g>
<g transform="translate(884.625,632.625) scale(3.605)"><path d="M3,6H0V0l6,0v3C6,4.7,4.7,6,3,6z"></path></g>
<g transform="translate(947.625,632.625) scale(3.605)"><circle cx="3" cy="3" r="3"></circle></g>
<g transform="translate(128.625,653.625) scale(3.605)"><path d="M6,6H3C1.3,6,0,4.7,0,3v0c0-1.7,1.3-3,3-3h3C6,0,6,6,6,6z"></path></g>
<g transform="translate(149.625,653.625) scale(3.605)"><path d="M6,6H0V0l3,0c1.7,0,3,1.3,3,3V6z"></path></g>
<g transform="translate(212.625,653.625) scale(3.605)"><path d="M6,6H3C1.3,6,0,4.7,0,3V0l6,0V6z"></path></g>
<g transform="translate(233.625,653.625) scale(3.605)"><rect width="6" height="6"></rect></g>
<g transform="translate(254.625,653.625) scale(3.605)"><path d="M6,6H0V0l3,0c1.7,0,3,1.3,3,3V6z"></path></g>
<g transform="translate(401.625,653.625) scale(3.605)"><path d="M6,6H0V3c0-1.7,1.3-3,3-3l3,0V6z"></path></g>
<g transform="translate(422.625,653.625) scale(3.605)"><path d="M6,6H0V0l3,0c1.7,0,3,1.3,3,3V6z"></path></g>
<g transform="translate(485.625,653.625) scale(3.605)"><path d="M6,6H3C1.3,6,0,4.7,0,3V0l6,0V6z"></path></g>
<g transform="translate(506.625,653.625) scale(3.605)"><path d="M6,6H0V0l3,0c1.7,0,3,1.3,3,3V6z"></path></g>
<g transform="translate(611.625,653.625) scale(3.605)"><rect width="6" height="6"></rect></g>
<g transform="translate(632.625,653.625) scale(3.605)"><rect width="6" height="6"></rect></g>
<g transform="translate(653.625,653.625) scale(3.605)"><rect width="6" height="6"></rect></g>
<g transform="translate(674.625,653.625) scale(3.605)"><rect width="6" height="6"></rect></g>
<g transform="translate(695.625,653.625) scale(3.605)"><rect width="6" height="6"></rect></g>
<g transform="translate(716.625,653.625) scale(3.605)"><rect width="6" height="6"></rect></g>
<g transform="translate(737.625,653.625) scale(3.605)"><path d="M3,6H0V0l3,0c1.7,0,3,1.3,3,3v0C6,4.7,4.7,6,3,6z"></path></g>
<g transform="translate(779.625,653.625) scale(3.605)"><path d="M6,6H0V3c0-1.7,1.3-3,3-3l3,0V6z"></path></g>
<g transform="translate(800.625,653.625) scale(3.605)"><path d="M3,6H0V0l6,0v3C6,4.7,4.7,6,3,6z"></path></g>
<g transform="translate(842.625,653.625) scale(3.605)"><path d="M3,6L3,6C1.3,6,0,4.7,0,3V0h6v3C6,4.7,4.7,6,3,6z"></path></g>
<g transform="translate(149.625,674.625) scale(3.605)"><rect width="6" height="6"></rect></g>
<g transform="translate(254.625,674.625) scale(3.605)"><path d="M3,6L3,6C1.3,6,0,4.7,0,3V0h6v3C6,4.7,4.7,6,3,6z"></path></g>
<g transform="translate(296.625,674.625) scale(3.605)"><path d="M6,6H0V3c0-1.7,1.3-3,3-3h0c1.7,0,3,1.3,3,3V6z"></path></g>
<g transform="translate(380.625,674.625) scale(3.605)"><path d="M6,6H3C1.3,6,0,4.7,0,3v0c0-1.7,1.3-3,3-3h3C6,0,6,6,6,6z"></path></g>
<g transform="translate(401.625,674.625) scale(3.605)"><rect width="6" height="6"></rect></g>
<g transform="translate(422.625,674.625) scale(3.605)"><rect width="6" height="6"></rect></g>
<g transform="translate(443.625,674.625) scale(3.605)"><path d="M3,6H0V0l3,0c1.7,0,3,1.3,3,3v0C6,4.7,4.7,6,3,6z"></path></g>
<g transform="translate(506.625,674.625) scale(3.605)"><path d="M3,6L3,6C1.3,6,0,4.7,0,3V0h6v3C6,4.7,4.7,6,3,6z"></path></g>
<g transform="translate(611.625,674.625) scale(3.605)"><path d="M3,6L3,6C1.3,6,0,4.7,0,3V0h6v3C6,4.7,4.7,6,3,6z"></path></g>
<g transform="translate(653.625,674.625) scale(3.605)"><rect width="6" height="6"></rect></g>
<g transform="translate(674.625,674.625) scale(3.605)"><rect width="6" height="6"></rect></g>
<g transform="translate(695.625,674.625) scale(3.605)"><path d="M3,6H0V0l6,0v3C6,4.7,4.7,6,3,6z"></path></g>
<g transform="translate(758.625,674.625) scale(3.605)"><path d="M6,6H0V3c0-1.7,1.3-3,3-3l3,0V6z"></path></g>
<g transform="translate(779.625,674.625) scale(3.605)"><path d="M3,6H0V0l6,0v3C6,4.7,4.7,6,3,6z"></path></g>
<g transform="translate(821.625,674.625) scale(3.605)"><circle cx="3" cy="3" r="3"></circle></g>
<g transform="translate(863.625,674.625) scale(3.605)"><path d="M6,6H3C1.3,6,0,4.7,0,3v0c0-1.7,1.3-3,3-3h3C6,0,6,6,6,6z"></path></g>
<g transform="translate(884.625,674.625) scale(3.605)"><path d="M6,6H0V0l3,0c1.7,0,3,1.3,3,3V6z"></path></g>
<g transform="translate(947.625,674.625) scale(3.605)"><path d="M6,6H0V3c0-1.7,1.3-3,3-3h0c1.7,0,3,1.3,3,3V6z"></path></g>
<g transform="translate(107.625,695.625) scale(3.605)"><path d="M6,6H0V3c0-1.7,1.3-3,3-3l3,0V6z"></path></g>
<g transform="translate(128.625,695.625) scale(3.605)"><rect width="6" height="6"></rect></g>
<g transform="translate(149.625,695.625) scale(3.605)"><path d="M3,6H0V0l6,0v3C6,4.7,4.7,6,3,6z"></path></g>
<g transform="translate(191.625,695.625) scale(3.605)"><path d="M6,6H0V3c0-1.7,1.3-3,3-3h0c1.7,0,3,1.3,3,3V6z"></path></g>
<g transform="translate(233.625,695.625) scale(3.605)"><circle cx="3" cy="3" r="3"></circle></g>
<g transform="translate(296.625,695.625) scale(3.605)"><path d="M6,6H3C1.3,6,0,4.7,0,3V0l6,0V6z"></path></g>
<g transform="translate(317.625,695.625) scale(3.605)"><path d="M3,6H0V0l3,0c1.7,0,3,1.3,3,3v0C6,4.7,4.7,6,3,6z"></path></g>
<g transform="translate(359.625,695.625) scale(3.605)"><path d="M6,6H0V3c0-1.7,1.3-3,3-3h0c1.7,0,3,1.3,3,3V6z"></path></g>
<g transform="translate(485.625,695.625) scale(3.605)"><path d="M6,6H0V3c0-1.7,1.3-3,3-3h0c1.7,0,3,1.3,3,3V6z"></path></g>
<g transform="translate(527.625,695.625) scale(3.605)"><path d="M6,6H0V3c0-1.7,1.3-3,3-3l3,0V6z"></path></g>
<g transform="translate(548.625,695.625) scale(3.605)"><rect width="6" height="6"></rect></g>
<g transform="translate(569.625,695.625) scale(3.605)"><rect width="6" height="6"></rect></g>
<g transform="translate(590.625,695.625) scale(3.605)"><path d="M6,6H0V0l3,0c1.7,0,3,1.3,3,3V6z"></path></g>
<g transform="translate(632.625,695.625) scale(3.605)"><path d="M6,6H3C1.3,6,0,4.7,0,3v0c0-1.7,1.3-3,3-3h3C6,0,6,6,6,6z"></path></g>
<g transform="translate(653.625,695.625) scale(3.605)"><rect width="6" height="6"></rect></g>
<g transform="translate(674.625,695.625) scale(3.605)"><rect width="6" height="6"></rect></g>
<g transform="translate(716.625,695.625) scale(3.605)"><path d="M6,6H0V3c0-1.7,1.3-3,3-3h0c1.7,0,3,1.3,3,3V6z"></path></g>
<g transform="translate(758.625,695.625) scale(3.605)"><rect width="6" height="6"></rect></g>
<g transform="translate(884.625,695.625) scale(3.605)"><rect width="6" height="6"></rect></g>
<g transform="translate(905.625,695.625) scale(3.605)"><rect width="6" height="6"></rect></g>
<g transform="translate(926.625,695.625) scale(3.605)"><rect width="6" height="6"></rect></g>
<g transform="translate(947.625,695.625) scale(3.605)"><rect width="6" height="6"></rect></g>
<g transform="translate(107.625,716.625) scale(3.605)"><rect width="6" height="6"></rect></g>
<g transform="translate(170.625,716.625) scale(3.605)"><path d="M6,6H3C1.3,6,0,4.7,0,3v0c0-1.7,1.3-3,3-3h3C6,0,6,6,6,6z"></path></g>
<g transform="translate(191.625,716.625) scale(3.605)"><rect width="6" height="6"></rect></g>
<g transform="translate(212.625,716.625) scale(3.605)"><path d="M6,6H0V0l3,0c1.7,0,3,1.3,3,3V6z"></path></g>
<g transform="translate(275.625,716.625) scale(3.605)"><circle cx="3" cy="3" r="3"></circle></g>
<g transform="translate(359.625,716.625) scale(3.605)"><path d="M3,6L3,6C1.3,6,0,4.7,0,3V0h6v3C6,4.7,4.7,6,3,6z"></path></g>
<g transform="translate(401.625,716.625) scale(3.605)"><path d="M6,6H3C1.3,6,0,4.7,0,3v0c0-1.7,1.3-3,3-3h3C6,0,6,6,6,6z"></path></g>
<g transform="translate(422.625,716.625) scale(3.605)"><rect width="6" height="6"></rect></g>
<g transform="translate(443.625,716.625) scale(3.605)"><rect width="6" height="6"></rect></g>
<g transform="translate(464.625,716.625) scale(3.605)"><rect width="6" height="6"></rect></g>
<g transform="translate(485.625,716.625) scale(3.605)"><path d="M3,6H0V0l6,0v3C6,4.7,4.7,6,3,6z"></path></g>
<g transform="translate(527.625,716.625) scale(3.605)"><path d="M6,6H3C1.3,6,0,4.7,0,3V0l6,0V6z"></path></g>
<g transform="translate(548.625,716.625) scale(3.605)"><rect width="6" height="6"></rect></g>
<g transform="translate(569.625,716.625) scale(3.605)"><rect width="6" height="6"></rect></g>
<g transform="translate(590.625,716.625) scale(3.605)"><rect width="6" height="6"></rect></g>
<g transform="translate(611.625,716.625) scale(3.605)"><path d="M3,6H0V0l3,0c1.7,0,3,1.3,3,3v0C6,4.7,4.7,6,3,6z"></path></g>
<g transform="translate(653.625,716.625) scale(3.605)"><rect width="6" height="6"></rect></g>
<g transform="translate(674.625,716.625) scale(3.605)"><rect width="6" height="6"></rect></g>
<g transform="translate(695.625,716.625) scale(3.605)"><rect width="6" height="6"></rect></g>
<g transform="translate(716.625,716.625) scale(3.605)"><path d="M3,6H0V0l6,0v3C6,4.7,4.7,6,3,6z"></path></g>
<g transform="translate(758.625,716.625) scale(3.605)"><path d="M6,6H3C1.3,6,0,4.7,0,3V0l6,0V6z"></path></g>
<g transform="translate(779.625,716.625) scale(3.605)"><rect width="6" height="6"></rect></g>
<g transform="translate(800.625,716.625) scale(3.605)"><rect width="6" height="6"></rect></g>
<g transform="translate(821.625,716.625) scale(3.605)"><path d="M6,6H0V0l3,0c1.7,0,3,1.3,3,3V6z"></path></g>
<g transform="translate(863.625,716.625) scale(3.605)"><path d="M6,6H0V3c0-1.7,1.3-3,3-3l3,0V6z"></path></g>
<g transform="translate(884.625,716.625) scale(3.605)"><rect width="6" height="6"></rect></g>
<g transform="translate(905.625,716.625) scale(3.605)"><rect width="6" height="6"></rect></g>
<g transform="translate(947.625,716.625) scale(3.605)"><path d="M3,6L3,6C1.3,6,0,4.7,0,3V0h6v3C6,4.7,4.7,6,3,6z"></path></g>
<g transform="translate(107.625,737.625) scale(3.605)"><rect width="6" height="6"></rect></g>
<g transform="translate(191.625,737.625) scale(3.605)"><path d="M6,6H3C1.3,6,0,4.7,0,3V0l6,0V6z"></path></g>
<g transform="translate(212.625,737.625) scale(3.605)"><rect width="6" height="6"></rect></g>
<g transform="translate(233.625,737.625) scale(3.605)"><rect width="6" height="6"></rect></g>
<g transform="translate(254.625,737.625) scale(3.605)"><path d="M6,6H0V0l3,0c1.7,0,3,1.3,3,3V6z"></path></g>
<g transform="translate(317.625,737.625) scale(3.605)"><path d="M6,6H0V3c0-1.7,1.3-3,3-3l3,0V6z"></path></g>
<g transform="translate(338.625,737.625) scale(3.605)"><path d="M3,6H0V0l3,0c1.7,0,3,1.3,3,3v0C6,4.7,4.7,6,3,6z"></path></g>
<g transform="translate(422.625,737.625) scale(3.605)"><path d="M6,6H3C1.3,6,0,4.7,0,3V0l6,0V6z"></path></g>
<g transform="translate(443.625,737.625) scale(3.605)"><rect width="6" height="6"></rect></g>
<g transform="translate(464.625,737.625) scale(3.605)"><rect width="6" height="6"></rect></g>
<g transform="translate(506.625,737.625) scale(3.605)"><path d="M6,6H0V3c0-1.7,1.3-3,3-3h0c1.7,0,3,1.3,3,3V6z"></path></g>
<g transform="translate(548.625,737.625) scale(3.605)"><rect width="6" height="6"></rect></g>
<g transform="translate(569.625,737.625) scale(3.605)"><rect width="6" height="6"></rect></g>
<g transform="translate(653.625,737.625) scale(3.605)"><path d="M3,6L3,6C1.3,6,0,4.7,0,3V0h6v3C6,4.7,4.7,6,3,6z"></path></g>
<g transform="translate(737.625,737.625) scale(3.605)"><path d="M6,6H0V3c0-1.7,1.3-3,3-3h0c1.7,0,3,1.3,3,3V6z"></path></g>
<g transform="translate(779.625,737.625) scale(3.605)"><rect width="6" height="6"></rect></g>
<g transform="translate(800.625,737.625) scale(3.605)"><rect width="6" height="6"></rect></g>
<g transform="translate(821.625,737.625) scale(3.605)"><rect width="6" height="6"></rect></g>
<g transform="translate(863.625,737.625) scale(3.605)"><rect width="6" height="6"></rect></g>
<g transform="translate(905.625,737.625) scale(3.605)"><path d="M3,6L3,6C1.3,6,0,4.7,0,3V0h6v3C6,4.7,4.7,6,3,6z"></path></g>
<g transform="translate(107.625,758.625) scale(3.605)"><rect width="6" height="6"></rect></g>
<g transform="translate(149.625,758.625) scale(3.605)"><circle cx="3" cy="3" r="3"></circle></g>
<g transform="translate(254.625,758.625) scale(3.605)"><rect width="6" height="6"></rect></g>
<g transform="translate(275.625,758.625) scale(3.605)"><path d="M6,6H0V0l3,0c1.7,0,3,1.3,3,3V6z"></path></g>
<g transform="translate(317.625,758.625) scale(3.605)"><rect width="6" height="6"></rect></g>
<g transform="translate(359.625,758.625) scale(3.605)"><circle cx="3" cy="3" r="3"></circle></g>
<g transform="translate(443.625,758.625) scale(3.605)"><rect width="6" height="6"></rect></g>
<g transform="translate(464.625,758.625) scale(3.605)"><rect width="6" height="6"></rect></g>
<g transform="translate(506.625,758.625) scale(3.605)"><path d="M6,6H3C1.3,6,0,4.7,0,3V0l6,0V6z"></path></g>
<g transform="translate(527.625,758.625) scale(3.605)"><rect width="6" height="6"></rect></g>
<g transform="translate(548.625,758.625) scale(3.605)"><rect width="6" height="6"></rect></g>
<g transform="translate(569.625,758.625) scale(3.605)"><path d="M3,6H0V0l6,0v3C6,4.7,4.7,6,3,6z"></path></g>
<g transform="translate(695.625,758.625) scale(3.605)"><path d="M6,6H0V3c0-1.7,1.3-3,3-3h0c1.7,0,3,1.3,3,3V6z"></path></g>
<g transform="translate(737.625,758.625) scale(3.605)"><path d="M6,6H3C1.3,6,0,4.7,0,3V0l6,0V6z"></path></g>
<g transform="translate(758.625,758.625) scale(3.605)"><rect width="6" height="6"></rect></g>
<g transform="translate(779.625,758.625) scale(3.605)"><rect width="6" height="6"></rect></g>
<g transform="translate(800.625,758.625) scale(3.605)"><rect width="6" height="6"></rect></g>
<g transform="translate(821.625,758.625) scale(3.605)"><rect width="6" height="6"></rect></g>
<g transform="translate(842.625,758.625) scale(3.605)"><rect width="6" height="6"></rect></g>
<g transform="translate(863.625,758.625) scale(3.605)"><rect width="6" height="6"></rect></g>
<g transform="translate(884.625,758.625) scale(3.605)"><path d="M6,6H0V0l3,0c1.7,0,3,1.3,3,3V6z"></path></g>
<g transform="translate(926.625,758.625) scale(3.605)"><path d="M6,6H0V3c0-1.7,1.3-3,3-3h0c1.7,0,3,1.3,3,3V6z"></path></g>
<g transform="translate(107.625,779.625) scale(3.605)"><path d="M3,6L3,6C1.3,6,0,4.7,0,3V0h6v3C6,4.7,4.7,6,3,6z"></path></g>
<g transform="translate(170.625,779.625) scale(3.605)"><circle cx="3" cy="3" r="3"></circle></g>
<g transform="translate(233.625,779.625) scale(3.605)"><path d="M6,6H3C1.3,6,0,4.7,0,3v0c0-1.7,1.3-3,3-3h3C6,0,6,6,6,6z"></path></g>
<g transform="translate(254.625,779.625) scale(3.605)"><rect width="6" height="6"></rect></g>
<g transform="translate(275.625,779.625) scale(3.605)"><rect width="6" height="6"></rect></g>
<g transform="translate(296.625,779.625) scale(3.605)"><rect width="6" height="6"></rect></g>
<g transform="translate(317.625,779.625) scale(3.605)"><rect width="6" height="6"></rect></g>
<g transform="translate(338.625,779.625) scale(3.605)"><path d="M3,6H0V0l3,0c1.7,0,3,1.3,3,3v0C6,4.7,4.7,6,3,6z"></path></g>
<g transform="translate(380.625,779.625) scale(3.605)"><circle cx="3" cy="3" r="3"></circle></g>
<g transform="translate(422.625,779.625) scale(3.605)"><path d="M6,6H0V3c0-1.7,1.3-3,3-3l3,0V6z"></path></g>
<g transform="translate(443.625,779.625) scale(3.605)"><rect width="6" height="6"></rect></g>
<g transform="translate(464.625,779.625) scale(3.605)"><rect width="6" height="6"></rect></g>
<g transform="translate(485.625,779.625) scale(3.605)"><path d="M3,6H0V0l3,0c1.7,0,3,1.3,3,3v0C6,4.7,4.7,6,3,6z"></path></g>
<g transform="translate(527.625,779.625) scale(3.605)"><rect width="6" height="6"></rect></g>
<g transform="translate(548.625,779.625) scale(3.605)"><rect width="6" height="6"></rect></g>
<g transform="translate(632.625,779.625) scale(3.605)"><path d="M6,6H0V3c0-1.7,1.3-3,3-3l3,0V6z"></path></g>
<g transform="translate(653.625,779.625) scale(3.605)"><path d="M6,6H0V0l3,0c1.7,0,3,1.3,3,3V6z"></path></g>
<g transform="translate(695.625,779.625) scale(3.605)"><rect width="6" height="6"></rect></g>
<g transform="translate(716.625,779.625) scale(3.605)"><path d="M3,6H0V0l3,0c1.7,0,3,1.3,3,3v0C6,4.7,4.7,6,3,6z"></path></g>
<g transform="translate(758.625,779.625) scale(3.605)"><path d="M6,6H3C1.3,6,0,4.7,0,3V0l6,0V6z"></path></g>
<g transform="translate(779.625,779.625) scale(3.605)"><rect width="6" height="6"></rect></g>
<g transform="translate(800.625,779.625) scale(3.605)"><rect width="6" height="6"></rect></g>
<g transform="translate(821.625,779.625) scale(3.605)"><rect width="6" height="6"></rect></g>
<g transform="translate(842.625,779.625) scale(3.605)"><rect width="6" height="6"></rect></g>
<g transform="translate(863.625,779.625) scale(3.605)"><rect width="6" height="6"></rect></g>
<g transform="translate(884.625,779.625) scale(3.605)"><rect width="6" height="6"></rect></g>
<g transform="translate(905.625,779.625) scale(3.605)"><rect width="6" height="6"></rect></g>
<g transform="translate(926.625,779.625) scale(3.605)"><rect width="6" height="6"></rect></g>
<g transform="translate(275.625,800.625) scale(3.605)"><path d="M6,6H3C1.3,6,0,4.7,0,3V0l6,0V6z"></path></g>
<g transform="translate(296.625,800.625) scale(3.605)"><path d="M3,6H0V0l6,0v3C6,4.7,4.7,6,3,6z"></path></g>
<g transform="translate(359.625,800.625) scale(3.605)"><path d="M6,6H0V3c0-1.7,1.3-3,3-3h0c1.7,0,3,1.3,3,3V6z"></path></g>
<g transform="translate(401.625,800.625) scale(3.605)"><path d="M6,6H0V3c0-1.7,1.3-3,3-3l3,0V6z"></path></g>
<g transform="translate(422.625,800.625) scale(3.605)"><path d="M3,6H0V0l6,0v3C6,4.7,4.7,6,3,6z"></path></g>
<g transform="translate(506.625,800.625) scale(3.605)"><path d="M6,6H3C1.3,6,0,4.7,0,3v0c0-1.7,1.3-3,3-3h3C6,0,6,6,6,6z"></path></g>
<g transform="translate(527.625,800.625) scale(3.605)"><rect width="6" height="6"></rect></g>
<g transform="translate(548.625,800.625) scale(3.605)"><rect width="6" height="6"></rect></g>
<g transform="translate(590.625,800.625) scale(3.605)"><circle cx="3" cy="3" r="3"></circle></g>
<g transform="translate(632.625,800.625) scale(3.605)"><path d="M6,6H3C1.3,6,0,4.7,0,3V0l6,0V6z"></path></g>
<g transform="translate(653.625,800.625) scale(3.605)"><rect width="6" height="6"></rect></g>
<g transform="translate(695.625,800.625) scale(3.605)"><rect width="6" height="6"></rect></g>
<g transform="translate(737.625,800.625) scale(3.605)"><path d="M6,6H0V3c0-1.7,1.3-3,3-3h0c1.7,0,3,1.3,3,3V6z"></path></g>
<g transform="translate(779.625,800.625) scale(3.605)"><rect width="6" height="6"></rect></g>
<g transform="translate(863.625,800.625) scale(3.605)"><rect width="6" height="6"></rect></g>
<g transform="translate(905.625,800.625) scale(3.605)"><path d="M6,6H3C1.3,6,0,4.7,0,3V0l6,0V6z"></path></g>
<g transform="translate(926.625,800.625) scale(3.605)"><rect width="6" height="6"></rect></g>
<g transform="translate(947.625,800.625) scale(3.605)"><path d="M3,6H0V0l3,0c1.7,0,3,1.3,3,3v0C6,4.7,4.7,6,3,6z"></path></g>
<g transform="translate(317.625,821.625) scale(3.605)"><path d="M6,6H0V3c0-1.7,1.3-3,3-3h0c1.7,0,3,1.3,3,3V6z"></path></g>
<g transform="translate(359.625,821.625) scale(3.605)"><path d="M6,6H3C1.3,6,0,4.7,0,3V0l6,0V6z"></path></g>
<g transform="translate(380.625,821.625) scale(3.605)"><rect width="6" height="6"></rect></g>
<g transform="translate(401.625,821.625) scale(3.605)"><path d="M3,6H0V0l6,0v3C6,4.7,4.7,6,3,6z"></path></g>
<g transform="translate(443.625,821.625) scale(3.605)"><path d="M6,6H3C1.3,6,0,4.7,0,3v0c0-1.7,1.3-3,3-3h3C6,0,6,6,6,6z"></path></g>
<g transform="translate(464.625,821.625) scale(3.605)"><rect width="6" height="6"></rect></g>
<g transform="translate(485.625,821.625) scale(3.605)"><path d="M6,6H0V0l3,0c1.7,0,3,1.3,3,3V6z"></path></g>
<g transform="translate(548.625,821.625) scale(3.605)"><rect width="6" height="6"></rect></g>
<g transform="translate(653.625,821.625) scale(3.605)"><path d="M6,6H3C1.3,6,0,4.7,0,3V0l6,0V6z"></path></g>
<g transform="translate(674.625,821.625) scale(3.605)"><rect width="6" height="6"></rect></g>
<g transform="translate(695.625,821.625) scale(3.605)"><rect width="6" height="6"></rect></g>
<g transform="translate(737.625,821.625) scale(3.605)"><path d="M6,6H3C1.3,6,0,4.7,0,3V0l6,0V6z"></path></g>
<g transform="translate(758.625,821.625) scale(3.605)"><rect width="6" height="6"></rect></g>
<g transform="translate(779.625,821.625) scale(3.605)"><rect width="6" height="6"></rect></g>
<g transform="translate(821.625,821.625) scale(3.605)"><circle cx="3" cy="3" r="3"></circle></g>
<g transform="translate(863.625,821.625) scale(3.605)"><rect width="6" height="6"></rect></g>
<g transform="translate(884.625,821.625) scale(3.605)"><path d="M6,6H0V0l3,0c1.7,0,3,1.3,3,3V6z"></path></g>
<g transform="translate(317.625,842.625) scale(3.605)"><path d="M6,6H3C1.3,6,0,4.7,0,3V0l6,0V6z"></path></g>
<g transform="translate(338.625,842.625) scale(3.605)"><path d="M6,6H0V0l3,0c1.7,0,3,1.3,3,3V6z"></path></g>
<g transform="translate(422.625,842.625) scale(3.605)"><path d="M6,6H0V3c0-1.7,1.3-3,3-3h0c1.7,0,3,1.3,3,3V6z"></path></g>
<g transform="translate(464.625,842.625) scale(3.605)"><rect width="6" height="6"></rect></g>
<g transform="translate(485.625,842.625) scale(3.605)"><path d="M3,6H0V0l6,0v3C6,4.7,4.7,6,3,6z"></path></g>
<g transform="translate(548.625,842.625) scale(3.605)"><path d="M6,6H3C1.3,6,0,4.7,0,3V0l6,0V6z"></path></g>
<g transform="translate(569.625,842.625) scale(3.605)"><rect width="6" height="6"></rect></g>
<g transform="translate(590.625,842.625) scale(3.605)"><path d="M3,6H0V0l3,0c1.7,0,3,1.3,3,3v0C6,4.7,4.7,6,3,6z"></path></g>
<g transform="translate(632.625,842.625) scale(3.605)"><circle cx="3" cy="3" r="3"></circle></g>
<g transform="translate(674.625,842.625) scale(3.605)"><rect width="6" height="6"></rect></g>
<g transform="translate(695.625,842.625) scale(3.605)"><path d="M3,6H0V0l6,0v3C6,4.7,4.7,6,3,6z"></path></g>
<g transform="translate(758.625,842.625) scale(3.605)"><path d="M6,6H3C1.3,6,0,4.7,0,3V0l6,0V6z"></path></g>
<g transform="translate(779.625,842.625) scale(3.605)"><rect width="6" height="6"></rect></g>
<g transform="translate(863.625,842.625) scale(3.605)"><rect width="6" height="6"></rect></g>
<g transform="translate(884.625,842.625) scale(3.605)"><path d="M3,6H0V0l6,0v3C6,4.7,4.7,6,3,6z"></path></g>
<g transform="translate(947.625,842.625) scale(3.605)"><circle cx="3" cy="3" r="3"></circle></g>
<g transform="translate(275.625,863.625) scale(3.605)"><path d="M6,6H0V3c0-1.7,1.3-3,3-3l3,0V6z"></path></g>
<g transform="translate(296.625,863.625) scale(3.605)"><path d="M6,6H0V0l3,0c1.7,0,3,1.3,3,3V6z"></path></g>
<g transform="translate(338.625,863.625) scale(3.605)"><rect width="6" height="6"></rect></g>
<g transform="translate(380.625,863.625) scale(3.605)"><circle cx="3" cy="3" r="3"></circle></g>
<g transform="translate(422.625,863.625) scale(3.605)"><path d="M3,6L3,6C1.3,6,0,4.7,0,3V0h6v3C6,4.7,4.7,6,3,6z"></path></g>
<g transform="translate(464.625,863.625) scale(3.605)"><path d="M3,6L3,6C1.3,6,0,4.7,0,3V0h6v3C6,4.7,4.7,6,3,6z"></path></g>
<g transform="translate(506.625,863.625) scale(3.605)"><path d="M6,6H0V3c0-1.7,1.3-3,3-3h0c1.7,0,3,1.3,3,3V6z"></path></g>
<g transform="translate(611.625,863.625) scale(3.605)"><path d="M6,6H0V3c0-1.7,1.3-3,3-3h0c1.7,0,3,1.3,3,3V6z"></path></g>
<g transform="translate(674.625,863.625) scale(3.605)"><path d="M3,6L3,6C1.3,6,0,4.7,0,3V0h6v3C6,4.7,4.7,6,3,6z"></path></g>
<g transform="translate(737.625,863.625) scale(3.605)"><circle cx="3" cy="3" r="3"></circle></g>
<g transform="translate(779.625,863.625) scale(3.605)"><path d="M6,6H3C1.3,6,0,4.7,0,3V0l6,0V6z"></path></g>
<g transform="translate(800.625,863.625) scale(3.605)"><rect width="6" height="6"></rect></g>
<g transform="translate(821.625,863.625) scale(3.605)"><rect width="6" height="6"></rect></g>
<g transform="translate(842.625,863.625) scale(3.605)"><rect width="6" height="6"></rect></g>
<g transform="translate(863.625,863.625) scale(3.605)"><path d="M3,6H0V0l6,0v3C6,4.7,4.7,6,3,6z"></path></g>
<g transform="translate(905.625,863.625) scale(3.605)"><path d="M6,6H3C1.3,6,0,4.7,0,3v0c0-1.7,1.3-3,3-3h3C6,0,6,6,6,6z"></path></g>
<g transform="translate(926.625,863.625) scale(3.605)"><path d="M3,6H0V0l3,0c1.7,0,3,1.3,3,3v0C6,4.7,4.7,6,3,6z"></path></g>
<g transform="translate(275.625,884.625) scale(3.605)"><rect width="6" height="6"></rect></g>
<g transform="translate(296.625,884.625) scale(3.605)"><rect width="6" height="6"></rect></g>
<g transform="translate(317.625,884.625) scale(3.605)"><rect width="6" height="6"></rect></g>
<g transform="translate(338.625,884.625) scale(3.605)"><rect width="6" height="6"></rect></g>
<g transform="translate(359.625,884.625) scale(3.605)"><path d="M3,6H0V0l3,0c1.7,0,3,1.3,3,3v0C6,4.7,4.7,6,3,6z"></path></g>
<g transform="translate(401.625,884.625) scale(3.605)"><circle cx="3" cy="3" r="3"></circle></g>
<g transform="translate(506.625,884.625) scale(3.605)"><path d="M3,6L3,6C1.3,6,0,4.7,0,3V0h6v3C6,4.7,4.7,6,3,6z"></path></g>
<g transform="translate(548.625,884.625) scale(3.605)"><circle cx="3" cy="3" r="3"></circle></g>
<g transform="translate(590.625,884.625) scale(3.605)"><path d="M6,6H3C1.3,6,0,4.7,0,3v0c0-1.7,1.3-3,3-3h3C6,0,6,6,6,6z"></path></g>
<g transform="translate(611.625,884.625) scale(3.605)"><rect width="6" height="6"></rect></g>
<g transform="translate(758.625,884.625) scale(3.605)"><circle cx="3" cy="3" r="3"></circle></g>
<g transform="translate(800.625,884.625) scale(3.605)"><rect width="6" height="6"></rect></g>
<g transform="translate(842.625,884.625) scale(3.605)"><rect width="6" height="6"></rect></g>
<g transform="translate(947.625,884.625) scale(3.605)"><circle cx="3" cy="3" r="3"></circle></g>
<g transform="translate(275.625,905.625) scale(3.605)"><path d="M6,6H3C1.3,6,0,4.7,0,3V0l6,0V6z"></path></g>
<g transform="translate(296.625,905.625) scale(3.605)"><rect width="6" height="6"></rect></g>
<g transform="translate(317.625,905.625) scale(3.605)"><path d="M3,6H0V0l6,0v3C6,4.7,4.7,6,3,6z"></path></g>
<g transform="translate(380.625,905.625) scale(3.605)"><circle cx="3" cy="3" r="3"></circle></g>
<g transform="translate(422.625,905.625) scale(3.605)"><path d="M6,6H0V3c0-1.7,1.3-3,3-3l3,0V6z"></path></g>
<g transform="translate(443.625,905.625) scale(3.605)"><rect width="6" height="6"></rect></g>
<g transform="translate(464.625,905.625) scale(3.605)"><rect width="6" height="6"></rect></g>
<g transform="translate(485.625,905.625) scale(3.605)"><path d="M3,6H0V0l3,0c1.7,0,3,1.3,3,3v0C6,4.7,4.7,6,3,6z"></path></g>
<g transform="translate(527.625,905.625) scale(3.605)"><circle cx="3" cy="3" r="3"></circle></g>
<g transform="translate(569.625,905.625) scale(3.605)"><circle cx="3" cy="3" r="3"></circle></g>
<g transform="translate(611.625,905.625) scale(3.605)"><path d="M3,6L3,6C1.3,6,0,4.7,0,3V0h6v3C6,4.7,4.7,6,3,6z"></path></g>
<g transform="translate(653.625,905.625) scale(3.605)"><path d="M6,6H3C1.3,6,0,4.7,0,3v0c0-1.7,1.3-3,3-3h3C6,0,6,6,6,6z"></path></g>
<g transform="translate(674.625,905.625) scale(3.605)"><path d="M6,6H0V0l3,0c1.7,0,3,1.3,3,3V6z"></path></g>
<g transform="translate(716.625,905.625) scale(3.605)"><path d="M6,6H3C1.3,6,0,4.7,0,3v0c0-1.7,1.3-3,3-3h3C6,0,6,6,6,6z"></path></g>
<g transform="translate(737.625,905.625) scale(3.605)"><path d="M3,6H0V0l3,0c1.7,0,3,1.3,3,3v0C6,4.7,4.7,6,3,6z"></path></g>
<g transform="translate(779.625,905.625) scale(3.605)"><path d="M6,6H0V3c0-1.7,1.3-3,3-3l3,0V6z"></path></g>
<g transform="translate(800.625,905.625) scale(3.605)"><rect width="6" height="6"></rect></g>
<g transform="translate(821.625,905.625) scale(3.605)"><rect width="6" height="6"></rect></g>
<g transform="translate(842.625,905.625) scale(3.605)"><rect width="6" height="6"></rect></g>
<g transform="translate(863.625,905.625) scale(3.605)"><path d="M6,6H0V0l3,0c1.7,0,3,1.3,3,3V6z"></path></g>
<g transform="translate(926.625,905.625) scale(3.605)"><path d="M6,6H0V3c0-1.7,1.3-3,3-3h0c1.7,0,3,1.3,3,3V6z"></path></g>
<g transform="translate(359.625,926.625) scale(3.605)"><circle cx="3" cy="3" r="3"></circle></g>
<g transform="translate(422.625,926.625) scale(3.605)"><rect width="6" height="6"></rect></g>
<g transform="translate(506.625,926.625) scale(3.605)"><path d="M6,6H0V3c0-1.7,1.3-3,3-3h0c1.7,0,3,1.3,3,3V6z"></path></g>
<g transform="translate(632.625,926.625) scale(3.605)"><path d="M6,6H0V3c0-1.7,1.3-3,3-3h0c1.7,0,3,1.3,3,3V6z"></path></g>
<g transform="translate(674.625,926.625) scale(3.605)"><rect width="6" height="6"></rect></g>
<g transform="translate(695.625,926.625) scale(3.605)"><path d="M3,6H0V0l3,0c1.7,0,3,1.3,3,3v0C6,4.7,4.7,6,3,6z"></path></g>
<g transform="translate(758.625,926.625) scale(3.605)"><path d="M6,6H0V3c0-1.7,1.3-3,3-3l3,0V6z"></path></g>
<g transform="translate(779.625,926.625) scale(3.605)"><path d="M3,6H0V0l6,0v3C6,4.7,4.7,6,3,6z"></path></g>
<g transform="translate(821.625,926.625) scale(3.605)"><path d="M3,6L3,6C1.3,6,0,4.7,0,3V0h6v3C6,4.7,4.7,6,3,6z"></path></g>
<g transform="translate(863.625,926.625) scale(3.605)"><rect width="6" height="6"></rect></g>
<g transform="translate(884.625,926.625) scale(3.605)"><path d="M6,6H0V0l3,0c1.7,0,3,1.3,3,3V6z"></path></g>
<g transform="translate(926.625,926.625) scale(3.605)"><path d="M3,6L3,6C1.3,6,0,4.7,0,3V0h6v3C6,4.7,4.7,6,3,6z"></path></g>
<g transform="translate(317.625,947.625) scale(3.605)"><path d="M6,6H3C1.3,6,0,4.7,0,3v0c0-1.7,1.3-3,3-3h3C6,0,6,6,6,6z"></path></g>
<g transform="translate(338.625,947.625) scale(3.605)"><path d="M3,6H0V0l3,0c1.7,0,3,1.3,3,3v0C6,4.7,4.7,6,3,6z"></path></g>
<g transform="translate(422.625,947.625) scale(3.605)"><path d="M6,6H3C1.3,6,0,4.7,0,3V0l6,0V6z"></path></g>
<g transform="translate(443.625,947.625) scale(3.605)"><path d="M3,6H0V0l3,0c1.7,0,3,1.3,3,3v0C6,4.7,4.7,6,3,6z"></path></g>
<g transform="translate(506.625,947.625) scale(3.605)"><path d="M6,6H3C1.3,6,0,4.7,0,3V0l6,0V6z"></path></g>
<g transform="translate(527.625,947.625) scale(3.605)"><rect width="6" height="6"></rect></g>
<g transform="translate(548.625,947.625) scale(3.605)"><path d="M3,6H0V0l3,0c1.7,0,3,1.3,3,3v0C6,4.7,4.7,6,3,6z"></path></g>
<g transform="translate(590.625,947.625) scale(3.605)"><circle cx="3" cy="3" r="3"></circle></g>
<g transform="translate(632.625,947.625) scale(3.605)"><path d="M3,6L3,6C1.3,6,0,4.7,0,3V0h6v3C6,4.7,4.7,6,3,6z"></path></g>
<g transform="translate(674.625,947.625) scale(3.605)"><path d="M3,6L3,6C1.3,6,0,4.7,0,3V0h6v3C6,4.7,4.7,6,3,6z"></path></g>
<g transform="translate(716.625,947.625) scale(3.605)"><circle cx="3" cy="3" r="3"></circle></g>
<g transform="translate(758.625,947.625) scale(3.605)"><path d="M3,6L3,6C1.3,6,0,4.7,0,3V0h6v3C6,4.7,4.7,6,3,6z"></path></g>
<g transform="translate(842.625,947.625) scale(3.605)"><path d="M6,6H3C1.3,6,0,4.7,0,3v0c0-1.7,1.3-3,3-3h3C6,0,6,6,6,6z"></path></g>
<g transform="translate(863.625,947.625) scale(3.605)"><rect width="6" height="6"></rect></g>
<g transform="translate(884.625,947.625) scale(3.605)"><rect width="6" height="6"></rect></g>
<g transform="translate(905.625,947.625) scale(3.605)"><path d="M3,6H0V0l3,0c1.7,0,3,1.3,3,3v0C6,4.7,4.7,6,3,6z"></path></g>
</g></g></mask></defs>
<rect width="996.428125" height="996.428125" fill="#ffffff" x="44.84375" y="44.84375"></rect>
<g fill="#000000" transform="scale(44.84375)"><path d="M22.7,0H1.3C0.6,0,0,0.6,0,1.3v25.3C0,27.4,0.6,28,1.3,28h21.3c0.7,0,1.3-0.6,1.3-1.3V1.3C24,0.6,23.4,0,22.7,0 z M23,22c0,0.6-0.5,1-1,1H2c-0.6,0-1-0.5-1-1V2c0-0.6,0.5-1,1-1h20c0.6,0,1,0.5,1,1V22z"></path></g>
<rect x="0" y="0" width="1076.25" height="1255.625" mask="url(#qrmask)" fill="#000000"></rect>
<g><g transform="translate(107.625,107.625)" fill="#000000"><g transform="scale(10.5)"><path d="M4.5,14h5.1C12,14,14,12,14,9.6V4.5C14,2,12,0,9.5,0H4.4C2,0,0,2,0,4.4v5.1C0,12,2,14,4.5,14z M12,4.8v4.4 c0,1.5-1.3,2.8-2.8,2.8H4.8C3.2,12,2,10.8,2,9.2V4.8C2,3.3,3.3,2,4.8,2h4.4C10.8,2,12,3.2,12,4.8z"></path></g></g>
<g transform="translate(149.625,149.625)" fill="#000000"><g transform="scale(10.5)"><circle cx="3" cy="3" r="3"></circle></g></g>
<g transform="translate(821.625,107.625)" fill="#000000"><g transform="scale(10.5)"><path d="M4.5,14h5.1C12,14,14,12,14,9.6V4.5C14,2,12,0,9.5,0H4.4C2,0,0,2,0,4.4v5.1C0,12,2,14,4.5,14z M12,4.8v4.4 c0,1.5-1.3,2.8-2.8,2.8H4.8C3.2,12,2,10.8,2,9.2V4.8C2,3.3,3.3,2,4.8,2h4.4C10.8,2,12,3.2,12,4.8z"></path></g></g>
<g transform="translate(863.625,149.625)" fill="#000000"><g transform="scale(10.5)"><circle cx="3" cy="3" r="3"></circle></g></g>
<g transform="translate(107.625,821.625)" fill="#000000"><g transform="scale(10.5)"><path d="M4.5,14h5.1C12,14,14,12,14,9.6V4.5C14,2,12,0,9.5,0H4.4C2,0,0,2,0,4.4v5.1C0,12,2,14,4.5,14z M12,4.8v4.4 c0,1.5-1.3,2.8-2.8,2.8H4.8C3.2,12,2,10.8,2,9.2V4.8C2,3.3,3.3,2,4.8,2h4.4C10.8,2,12,3.2,12,4.8z"></path></g></g>
<g transform="translate(149.625,863.625)" fill="#000000"><g transform="scale(10.5)"><circle cx="3" cy="3" r="3"></circle></g></g></g>
<text fill="#FFFFFF" font-family="'Courier New', Courier, monospace" font-size="76.648317307692px" text-anchor="middle" x="525.625" y="141.58949704142" transform="translate(0,1031.40625)">Heroku Deploy</text></svg>